  % Total    % Received % Xferd  Average Speed   Time    Time     Time  Current
                                 Dload  Upload   Total   Spent    Left  Speed
  0     0    0     0    0     0      0      0 --:--:-- --:--:-- --:--:--     0  2 83.1M    2 2250k    0     0  3333k      0  0:00:25 --:--:--  0:00:25 3339k 25 83.1M   25 21.2M    0     0  12.6M      0  0:00:06  0:00:01  0:00:05 12.7M 56 83.1M   56 47.1M    0     0  17.6M      0  0:00:04  0:00:02  0:00:02 17.6M 78 83.1M   78 64.9M    0     0  17.4M      0  0:00:04  0:00:03  0:00:01 17.5M100 83.1M  100 83.1M    0     0  18.3M      0  0:00:04  0:00:04 --:--:-- 18.3M
  % Total    % Received % Xferd  Average Speed   Time    Time     Time  Current
                                 Dload  Upload   Total   Spent    Left  Speed
  0     0    0     0    0     0      0      0 --:--:-- --:--:-- --:--:--     0  0     0    0     0    0     0      0      0 --:--:-- --:--:-- --:--:--     0 36 50.6M   36 18.4M    0     0  17.7M      0  0:00:02  0:00:01  0:00:01 17.8M 81 50.6M   81 41.1M    0     0  20.1M      0  0:00:02  0:00:02 --:--:-- 20.1M100 50.6M  100 50.6M    0     0  19.9M      0  0:00:02  0:00:02 --:--:-- 19.9M
  % Total    % Received % Xferd  Average Speed   Time    Time     Time  Current
                                 Dload  Upload   Total   Spent    Left  Speed
  0     0    0     0    0     0      0      0 --:--:-- --:--:-- --:--:--     0  2 86.1M    2 2007k    0     0  4581k      0  0:00:19 --:--:--  0:00:19 4594k 36 86.1M   36 31.3M    0     0  21.7M      0  0:00:03  0:00:01  0:00:02 21.8M 69 86.1M   69 59.4M    0     0  24.0M      0  0:00:03  0:00:02  0:00:01 24.0M 91 86.1M   91 79.1M    0     0  22.6M      0  0:00:03  0:00:03 --:--:-- 22.7M100 86.1M  100 86.1M    0     0  22.9M      0  0:00:03  0:00:03 --:--:-- 22.9M
  % Total    % Received % Xferd  Average Speed   Time    Time     Time  Current
                                 Dload  Upload   Total   Spent    Left  Speed
  0     0    0     0    0     0      0      0 --:--:-- --:--:-- --:--:--     0 12 79.2M   12  9.9M    0     0  16.1M      0  0:00:04 --:--:--  0:00:04 16.2M 35 79.2M   35 28.4M    0     0  17.6M      0  0:00:04  0:00:01  0:00:03 17.6M 63 79.2M   63 50.6M    0     0  19.3M      0  0:00:04  0:00:02  0:00:02 19.3M 97 79.2M   97 77.0M    0     0  21.2M      0  0:00:03  0:00:03 --:--:-- 21.2M100 79.2M  100 79.2M    0     0  21.4M      0  0:00:03  0:00:03 --:--:-- 21.4M
  % Total    % Received % Xferd  Average Speed   Time    Time     Time  Current
                                 Dload  Upload   Total   Spent    Left  Speed
  0     0    0     0    0     0      0      0 --:--:-- --:--:-- --:--:--     0 19 73.6M   19 14.1M    0     0  16.0M      0  0:00:04 --:--:--  0:00:04 16.0M 47 73.6M   47 35.0M    0     0  18.7M      0  0:00:03  0:00:01  0:00:02 18.7M 81 73.6M   81 60.1M    0     0  21.0M      0  0:00:03  0:00:02  0:00:01 21.0M100 73.6M  100 73.6M    0     0  21.8M      0  0:00:03  0:00:03 --:--:-- 21.8M
  % Total    % Received % Xferd  Average Speed   Time    Time     Time  Current
                                 Dload  Upload   Total   Spent    Left  Speed
  0     0    0     0    0     0      0      0 --:--:-- --:--:-- --:--:--     0  0 65.2M    0 33262    0     0  70671      0  0:16:08 --:--:--  0:16:08 70921 37 65.2M   37 24.2M    0     0  16.6M      0  0:00:03  0:00:01  0:00:02 16.6M 76 65.2M   76 49.7M    0     0  20.6M      0  0:00:03  0:00:02  0:00:01 20.6M100 65.2M  100 65.2M    0     0  19.5M      0  0:00:03  0:00:03 --:--:-- 19.5M
  % Total    % Received % Xferd  Average Speed   Time    Time     Time  Current
                                 Dload  Upload   Total   Spent    Left  Speed
  0     0    0     0    0     0      0      0 --:--:-- --:--:-- --:--:--     0  0     0    0     0    0     0      0      0 --:--:-- --:--:-- --:--:--     0 14 83.5M   14 12.1M    0     0  11.5M      0  0:00:07  0:00:01  0:00:06 11.5M 43 83.5M   43 36.1M    0     0  17.8M      0  0:00:04  0:00:02  0:00:02 17.8M 79 83.5M   79 66.6M    0     0  22.0M      0  0:00:03  0:00:03 --:--:-- 22.0M100 83.5M  100 83.5M    0     0  24.3M      0  0:00:03  0:00:03 --:--:-- 24.3M
  % Total    % Received % Xferd  Average Speed   Time    Time     Time  Current
                                 Dload  Upload   Total   Spent    Left  Speed
  0     0    0     0    0     0      0      0 --:--:-- --:--:-- --:--:--     0 10 47.5M   10 4962k    0     0  9357k      0  0:00:05 --:--:--  0:00:05 9363k 63 47.5M   63 30.0M    0     0  19.3M      0  0:00:02  0:00:01  0:00:01 19.3M100 47.5M  100 47.5M    0     0  21.3M      0  0:00:02  0:00:02 --:--:-- 21.3M
  % Total    % Received % Xferd  Average Speed   Time    Time     Time  Current
                                 Dload  Upload   Total   Spent    Left  Speed
  0     0    0     0    0     0      0      0 --:--:-- --:--:-- --:--:--     0  0     0    0     0    0     0      0      0 --:--:-- --:--:-- --:--:--     0 48 42.0M   48 20.3M    0     0  16.3M      0  0:00:02  0:00:01  0:00:01 16.4M 98 42.0M   98 41.4M    0     0  18.4M      0  0:00:02  0:00:02 --:--:-- 18.4M100 42.0M  100 42.0M    0     0  18.4M      0  0:00:02  0:00:02 --:--:-- 18.4M
  % Total    % Received % Xferd  Average Speed   Time    Time     Time  Current
                                 Dload  Upload   Total   Spent    Left  Speed
  0     0    0     0    0     0      0      0 --:--:-- --:--:-- --:--:--     0 32 51.0M   32 16.6M    0     0  18.3M      0  0:00:02 --:--:--  0:00:02 18.3M 79 51.0M   79 40.8M    0     0  21.4M      0  0:00:02  0:00:01  0:00:01 21.4M100 51.0M  100 51.0M    0     0  21.8M      0  0:00:02  0:00:02 --:--:-- 21.8M
  % Total    % Received % Xferd  Average Speed   Time    Time     Time  Current
                                 Dload  Upload   Total   Spent    Left  Speed
  0     0    0     0    0     0      0      0 --:--:-- --:--:-- --:--:--     0  8 55.9M    8 5137k    0     0  9189k      0  0:00:06 --:--:--  0:00:06 9207k 59 55.9M   59 33.2M    0     0  22.2M      0  0:00:02  0:00:01  0:00:01 22.2M 98 55.9M   98 55.0M    0     0  21.5M      0  0:00:02  0:00:02 --:--:-- 21.6M100 55.9M  100 55.9M    0     0  21.6M      0  0:00:02  0:00:02 --:--:-- 21.7M
  % Total    % Received % Xferd  Average Speed   Time    Time     Time  Current
                                 Dload  Upload   Total   Spent    Left  Speed
  0     0    0     0    0     0      0      0 --:--:-- --:--:-- --:--:--     0 17 83.0M   17 14.2M    0     0  16.2M      0  0:00:05 --:--:--  0:00:05 16.2M 45 83.0M   45 37.9M    0     0  20.4M      0  0:00:04  0:00:01  0:00:03 20.4M 71 83.0M   71 59.2M    0     0  20.7M      0  0:00:03  0:00:02  0:00:01 20.7M 98 83.0M   98 81.5M    0     0  21.1M      0  0:00:03  0:00:03 --:--:-- 21.1M100 83.0M  100 83.0M    0     0  21.0M      0  0:00:03  0:00:03 --:--:-- 21.0M
  % Total    % Received % Xferd  Average Speed   Time    Time     Time  Current
                                 Dload  Upload   Total   Spent    Left  Speed
  0     0    0     0    0     0      0      0 --:--:-- --:--:-- --:--:--     0 18 81.2M   18 15.0M    0     0  17.1M      0  0:00:04 --:--:--  0:00:04 17.2M 48 81.2M   48 39.2M    0     0  19.7M      0  0:00:04  0:00:01  0:00:03 19.7M 72 81.2M   72 59.1M    0     0  20.2M      0  0:00:04  0:00:02  0:00:02 20.2M100 81.2M  100 81.2M    0     0  21.3M      0  0:00:03  0:00:03 --:--:-- 21.3M
  % Total    % Received % Xferd  Average Speed   Time    Time     Time  Current
                                 Dload  Upload   Total   Spent    Left  Speed
  0     0    0     0    0     0      0      0 --:--:-- --:--:-- --:--:--     0 20  101M   20 20.9M    0     0  21.8M      0  0:00:04 --:--:--  0:00:04 21.8M 42  101M   42 42.9M    0     0  21.9M      0  0:00:04  0:00:01  0:00:03 21.9M 66  101M   66 67.0M    0     0  22.6M      0  0:00:04  0:00:02  0:00:02 22.6M 92  101M   92 93.7M    0     0  23.6M      0  0:00:04  0:00:03  0:00:01 23.6M100  101M  100  101M    0     0  23.6M      0  0:00:04  0:00:04 --:--:-- 23.6M
  % Total    % Received % Xferd  Average Speed   Time    Time     Time  Current
                                 Dload  Upload   Total   Spent    Left  Speed
  0     0    0     0    0     0      0      0 --:--:-- --:--:-- --:--:--     0 16 48.4M   16 8190k    0     0  13.1M      0  0:00:03 --:--:--  0:00:03 13.1M 67 48.4M   67 32.5M    0     0  20.1M      0  0:00:02  0:00:01  0:00:01 20.2M100 48.4M  100 48.4M    0     0  20.8M      0  0:00:02  0:00:02 --:--:-- 20.8M
  % Total    % Received % Xferd  Average Speed   Time    Time     Time  Current
                                 Dload  Upload   Total   Spent    Left  Speed
  0     0    0     0    0     0      0      0 --:--:-- --:--:-- --:--:--     0  0     0    0     0    0     0      0      0 --:--:-- --:--:-- --:--:--     0 45 55.6M   45 25.1M    0     0  20.2M      0  0:00:02  0:00:01  0:00:01 20.2M 80 55.6M   80 45.0M    0     0  19.7M      0  0:00:02  0:00:02 --:--:-- 19.7M100 55.6M  100 55.6M    0     0  20.3M      0  0:00:02  0:00:02 --:--:-- 20.3M
  % Total    % Received % Xferd  Average Speed   Time    Time     Time  Current
                                 Dload  Upload   Total   Spent    Left  Speed
  0     0    0     0    0     0      0      0 --:--:-- --:--:-- --:--:--     0  5 64.3M    5 3639k    0     0  8281k      0  0:00:07 --:--:--  0:00:07 8308k 54 64.3M   54 35.0M    0     0  24.2M      0  0:00:02  0:00:01  0:00:01 24.2M 93 64.3M   93 60.0M    0     0  24.1M      0  0:00:02  0:00:02 --:--:-- 24.2M100 64.3M  100 64.3M    0     0  24.7M      0  0:00:02  0:00:02 --:--:-- 24.7M
  % Total    % Received % Xferd  Average Speed   Time    Time     Time  Current
                                 Dload  Upload   Total   Spent    Left  Speed
  0     0    0     0    0     0      0      0 --:--:-- --:--:-- --:--:--     0 12 77.9M   12 10.0M    0     0  12.4M      0  0:00:06 --:--:--  0:00:06 12.5M 33 77.9M   33 25.7M    0     0  14.5M      0  0:00:05  0:00:01  0:00:04 14.5M 64 77.9M   64 50.0M    0     0  18.0M      0  0:00:04  0:00:02  0:00:02 18.0M 84 77.9M   84 65.5M    0     0  17.3M      0  0:00:04  0:00:03  0:00:01 17.3M100 77.9M  100 77.9M    0     0  18.5M      0  0:00:04  0:00:04 --:--:-- 18.5M
ffmpeg version 7.1-essentials_build-www.gyan.dev Copyright (c) 2000-2024 the FFmpeg developers
  built with gcc 14.2.0 (Rev1, Built by MSYS2 project)
  configuration: --enable-gpl --enable-version3 --enable-static --disable-w32threads --disable-autodetect --enable-fontconfig --enable-iconv --enable-gnutls --enable-libxml2 --enable-gmp --enable-bzlib --enable-lzma --enable-zlib --enable-libsrt --enable-libssh --enable-libzmq --enable-avisynth --enable-sdl2 --enable-libwebp --enable-libx264 --enable-libx265 --enable-libxvid --enable-libaom --enable-libopenjpeg --enable-libvpx --enable-mediafoundation --enable-libass --enable-libfreetype --enable-libfribidi --enable-libharfbuzz --enable-libvidstab --enable-libvmaf --enable-libzimg --enable-amf --enable-cuda-llvm --enable-cuvid --enable-dxva2 --enable-d3d11va --enable-d3d12va --enable-ffnvcodec --enable-libvpl --enable-nvdec --enable-nvenc --enable-vaapi --enable-libgme --enable-libopenmpt --enable-libopencore-amrwb --enable-libmp3lame --enable-libtheora --enable-libvo-amrwbenc --enable-libgsm --enable-libopencore-amrnb --enable-libopus --enable-libspeex --enable-libvorbis --enable-librubberband
  libavutil      59. 39.100 / 59. 39.100
  libavcodec     61. 19.100 / 61. 19.100
  libavformat    61.  7.100 / 61.  7.100
  libavdevice    61.  3.100 / 61.  3.100
  libavfilter    10.  4.100 / 10.  4.100
  libswscale      8.  3.100 /  8.  3.100
  libswresample   5.  3.100 /  5.  3.100
  libpostproc    58.  3.100 / 58.  3.100
Input #0, mov,mp4,m4a,3gp,3g2,mj2, from 'C:\Users\vladi\code\text_to_voice\learn_vids\1 John_default.mp4':
  Metadata:
    major_brand     : isom
    minor_version   : 1
    compatible_brands: isom
    creation_time   : 2023-12-12T15:24:34.000000Z
    encoder         : GPAC-2.0-rev0-g418db4149-HEAD
  Duration: 00:20:49.74, start: 0.000000, bitrate: 678 kb/s
  Stream #0:0[0x1](unk): Video: h264 (Main) (avc1 / 0x31637661), yuv420p(tv, bt709, progressive), 1216x760 [SAR 1:1 DAR 8:5], 547 kb/s, 30 fps, 30 tbr, 90k tbn (default)
      Metadata:
        handler_name    : ISO Video Handler
        vendor_id       : [0][0][0][0]
  Stream #0:1[0x2](unk): Audio: aac (LC) (mp4a / 0x6134706D), 44100 Hz, stereo, fltp, 124 kb/s (default)
      Metadata:
        handler_name    : ISO Audio Handler
        vendor_id       : [0][0][0][0]
  Stream #0:2[0x3](eng): Subtitle: mov_text (tx3g / 0x67337874), 1216x760, 0 kb/s (default)
      Metadata:
        creation_time   : 2023-12-12T15:24:36.000000Z
        handler_name    : panopto_EN-US
Stream mapping:
  Stream #0:1 -> #0:0 (aac (native) -> mp3 (libmp3lame))
Press [q] to stop, [?] for help
Output #0, mp3, to 'C:\Users\vladi\code\text_to_voice\learn_vids\mp3\1 John_default.mp3':
  Metadata:
    major_brand     : isom
    minor_version   : 1
    compatible_brands: isom
    TSSE            : Lavf61.7.100
  Stream #0:0(unk): Audio: mp3, 44100 Hz, stereo, fltp (default)
      Metadata:
        handler_name    : ISO Audio Handler
        vendor_id       : [0][0][0][0]
        encoder         : Lavc61.19.100 libmp3lame
size=     768KiB time=00:01:02.17 bitrate= 101.2kbits/s speed= 121x    size=    1792KiB time=00:02:05.93 bitrate= 116.6kbits/s speed= 123x    size=    2816KiB time=00:03:12.21 bitrate= 120.0kbits/s speed= 125x    size=    4096KiB time=00:04:20.10 bitrate= 129.0kbits/s speed= 126x    size=    5120KiB time=00:05:25.59 bitrate= 128.8kbits/s speed= 126x    size=    5888KiB time=00:06:26.29 bitrate= 124.9kbits/s speed= 125x    size=    6912KiB time=00:07:27.60 bitrate= 126.5kbits/s speed= 124x    size=    7936KiB time=00:08:31.50 bitrate= 127.1kbits/s speed= 124x    size=    8960KiB time=00:09:33.59 bitrate= 128.0kbits/s speed= 124x    size=    9984KiB time=00:10:39.55 bitrate= 127.9kbits/s speed= 124x    size=   11008KiB time=00:11:45.04 bitrate= 127.9kbits/s speed= 124x    size=   12032KiB time=00:12:52.31 bitrate= 127.6kbits/s speed= 125x    size=   13056KiB time=00:13:57.66 bitrate= 127.7kbits/s speed= 125x    size=   14080KiB time=00:15:01.95 bitrate= 127.9kbits/s speed= 125x    size=   15104KiB time=00:16:02.50 bitrate= 128.6kbits/s speed= 124x    size=   16128KiB time=00:17:08.57 bitrate= 128.5kbits/s speed= 125x    size=   17152KiB time=00:18:12.02 bitrate= 128.7kbits/s speed= 124x    size=   18176KiB time=00:19:13.62 bitrate= 129.1kbits/s speed= 124x    size=   19200KiB time=00:20:16.10 bitrate= 129.3kbits/s speed= 124x    [out#0/mp3 @ 000001b3e7c7f440] video:0KiB audio:19760KiB subtitle:0KiB other streams:0KiB global headers:0KiB muxing overhead: 0.001685%
size=   19760KiB time=00:20:49.65 bitrate= 129.5kbits/s speed= 124x    
ffmpeg version 7.1-essentials_build-www.gyan.dev Copyright (c) 2000-2024 the FFmpeg developers
  built with gcc 14.2.0 (Rev1, Built by MSYS2 project)
  configuration: --enable-gpl --enable-version3 --enable-static --disable-w32threads --disable-autodetect --enable-fontconfig --enable-iconv --enable-gnutls --enable-libxml2 --enable-gmp --enable-bzlib --enable-lzma --enable-zlib --enable-libsrt --enable-libssh --enable-libzmq --enable-avisynth --enable-sdl2 --enable-libwebp --enable-libx264 --enable-libx265 --enable-libxvid --enable-libaom --enable-libopenjpeg --enable-libvpx --enable-mediafoundation --enable-libass --enable-libfreetype --enable-libfribidi --enable-libharfbuzz --enable-libvidstab --enable-libvmaf --enable-libzimg --enable-amf --enable-cuda-llvm --enable-cuvid --enable-dxva2 --enable-d3d11va --enable-d3d12va --enable-ffnvcodec --enable-libvpl --enable-nvdec --enable-nvenc --enable-vaapi --enable-libgme --enable-libopenmpt --enable-libopencore-amrwb --enable-libmp3lame --enable-libtheora --enable-libvo-amrwbenc --enable-libgsm --enable-libopencore-amrnb --enable-libopus --enable-libspeex --enable-libvorbis --enable-librubberband
  libavutil      59. 39.100 / 59. 39.100
  libavcodec     61. 19.100 / 61. 19.100
  libavformat    61.  7.100 / 61.  7.100
  libavdevice    61.  3.100 / 61.  3.100
  libavfilter    10.  4.100 / 10.  4.100
  libswscale      8.  3.100 /  8.  3.100
  libswresample   5.  3.100 /  5.  3.100
  libpostproc    58.  3.100 / 58.  3.100
Input #0, mov,mp4,m4a,3gp,3g2,mj2, from 'C:\Users\vladi\code\text_to_voice\learn_vids\1 Peter_default.mp4':
  Metadata:
    major_brand     : isom
    minor_version   : 1
    compatible_brands: isom
    creation_time   : 2023-12-11T15:34:21.000000Z
    encoder         : GPAC-2.0-rev0-g418db4149-HEAD
  Duration: 00:14:12.58, start: 0.000000, bitrate: 766 kb/s
  Stream #0:0[0x1](unk): Video: h264 (Main) (avc1 / 0x31637661), yuv420p(tv, bt709, progressive), 1280x720 [SAR 1:1 DAR 16:9], 635 kb/s, 30 fps, 30 tbr, 90k tbn (default)
      Metadata:
        handler_name    : ISO Video Handler
        vendor_id       : [0][0][0][0]
  Stream #0:1[0x2](unk): Audio: aac (LC) (mp4a / 0x6134706D), 44100 Hz, stereo, fltp, 124 kb/s (default)
      Metadata:
        handler_name    : ISO Audio Handler
        vendor_id       : [0][0][0][0]
  Stream #0:2[0x3](eng): Subtitle: mov_text (tx3g / 0x67337874), 1280x720, 0 kb/s (default)
      Metadata:
        creation_time   : 2023-12-11T15:34:22.000000Z
        handler_name    : panopto_EN-US
Stream mapping:
  Stream #0:1 -> #0:0 (aac (native) -> mp3 (libmp3lame))
Press [q] to stop, [?] for help
Output #0, mp3, to 'C:\Users\vladi\code\text_to_voice\learn_vids\mp3\1 Peter_default.mp3':
  Metadata:
    major_brand     : isom
    minor_version   : 1
    compatible_brands: isom
    TSSE            : Lavf61.7.100
  Stream #0:0(unk): Audio: mp3, 44100 Hz, stereo, fltp (default)
      Metadata:
        handler_name    : ISO Audio Handler
        vendor_id       : [0][0][0][0]
        encoder         : Lavc61.19.100 libmp3lame
size=     768KiB time=00:00:55.64 bitrate= 113.1kbits/s speed= 109x    size=    1792KiB time=00:01:54.62 bitrate= 128.1kbits/s speed= 111x    size=    2560KiB time=00:02:53.14 bitrate= 121.1kbits/s speed= 112x    size=    3584KiB time=00:03:51.08 bitrate= 127.1kbits/s speed= 112x    size=    4608KiB time=00:04:50.66 bitrate= 129.9kbits/s speed= 112x    size=    5376KiB time=00:05:42.41 bitrate= 128.6kbits/s speed= 110x    size=    6144KiB time=00:06:34.21 bitrate= 127.7kbits/s speed= 108x    size=    7168KiB time=00:07:34.61 bitrate= 129.2kbits/s speed= 109x    size=    8192KiB time=00:08:36.57 bitrate= 129.9kbits/s speed= 110x    size=    8960KiB time=00:09:36.91 bitrate= 127.2kbits/s speed= 111x    size=    9984KiB time=00:10:38.72 bitrate= 128.1kbits/s speed= 112x    size=   11008KiB time=00:11:40.16 bitrate= 128.8kbits/s speed= 112x    size=   12032KiB time=00:12:41.13 bitrate= 129.5kbits/s speed= 113x    size=   12800KiB time=00:13:34.13 bitrate= 128.8kbits/s speed= 112x    [out#0/mp3 @ 000002944ab26b80] video:0KiB audio:13628KiB subtitle:0KiB other streams:0KiB global headers:0KiB muxing overhead: 0.002444%
size=   13628KiB time=00:14:12.47 bitrate= 131.0kbits/s speed= 111x    
ffmpeg version 7.1-essentials_build-www.gyan.dev Copyright (c) 2000-2024 the FFmpeg developers
  built with gcc 14.2.0 (Rev1, Built by MSYS2 project)
  configuration: --enable-gpl --enable-version3 --enable-static --disable-w32threads --disable-autodetect --enable-fontconfig --enable-iconv --enable-gnutls --enable-libxml2 --enable-gmp --enable-bzlib --enable-lzma --enable-zlib --enable-libsrt --enable-libssh --enable-libzmq --enable-avisynth --enable-sdl2 --enable-libwebp --enable-libx264 --enable-libx265 --enable-libxvid --enable-libaom --enable-libopenjpeg --enable-libvpx --enable-mediafoundation --enable-libass --enable-libfreetype --enable-libfribidi --enable-libharfbuzz --enable-libvidstab --enable-libvmaf --enable-libzimg --enable-amf --enable-cuda-llvm --enable-cuvid --enable-dxva2 --enable-d3d11va --enable-d3d12va --enable-ffnvcodec --enable-libvpl --enable-nvdec --enable-nvenc --enable-vaapi --enable-libgme --enable-libopenmpt --enable-libopencore-amrwb --enable-libmp3lame --enable-libtheora --enable-libvo-amrwbenc --enable-libgsm --enable-libopencore-amrnb --enable-libopus --enable-libspeex --enable-libvorbis --enable-librubberband
  libavutil      59. 39.100 / 59. 39.100
  libavcodec     61. 19.100 / 61. 19.100
  libavformat    61.  7.100 / 61.  7.100
  libavdevice    61.  3.100 / 61.  3.100
  libavfilter    10.  4.100 / 10.  4.100
  libswscale      8.  3.100 /  8.  3.100
  libswresample   5.  3.100 /  5.  3.100
  libpostproc    58.  3.100 / 58.  3.100
Input #0, mov,mp4,m4a,3gp,3g2,mj2, from 'C:\Users\vladi\code\text_to_voice\learn_vids\2 Peter_default.mp4':
  Metadata:
    major_brand     : isom
    minor_version   : 1
    compatible_brands: isom
    creation_time   : 2023-12-11T15:34:18.000000Z
    encoder         : GPAC-2.0-rev0-g418db4149-HEAD
  Duration: 00:11:39.66, start: 0.000000, bitrate: 667 kb/s
  Stream #0:0[0x1](unk): Video: h264 (Main) (avc1 / 0x31637661), yuv420p(tv, bt709, progressive), 1280x720 [SAR 1:1 DAR 16:9], 535 kb/s, 30 fps, 30 tbr, 90k tbn (default)
      Metadata:
        handler_name    : ISO Video Handler
        vendor_id       : [0][0][0][0]
  Stream #0:1[0x2](unk): Audio: aac (LC) (mp4a / 0x6134706D), 44100 Hz, stereo, fltp, 124 kb/s (default)
      Metadata:
        handler_name    : ISO Audio Handler
        vendor_id       : [0][0][0][0]
  Stream #0:2[0x3](eng): Subtitle: mov_text (tx3g / 0x67337874), 1280x720, 0 kb/s (default)
      Metadata:
        creation_time   : 2023-12-11T15:34:20.000000Z
        handler_name    : panopto_EN-US
Stream mapping:
  Stream #0:1 -> #0:0 (aac (native) -> mp3 (libmp3lame))
Press [q] to stop, [?] for help
Output #0, mp3, to 'C:\Users\vladi\code\text_to_voice\learn_vids\mp3\2 Peter_default.mp3':
  Metadata:
    major_brand     : isom
    minor_version   : 1
    compatible_brands: isom
    TSSE            : Lavf61.7.100
  Stream #0:0(unk): Audio: mp3, 44100 Hz, stereo, fltp (default)
      Metadata:
        handler_name    : ISO Audio Handler
        vendor_id       : [0][0][0][0]
        encoder         : Lavc61.19.100 libmp3lame
size=     768KiB time=00:00:52.35 bitrate= 120.2kbits/s speed= 104x    size=    1792KiB time=00:01:51.70 bitrate= 131.4kbits/s speed= 109x    size=    2560KiB time=00:02:44.88 bitrate= 127.2kbits/s speed= 107x    size=    3584KiB time=00:03:43.21 bitrate= 131.5kbits/s speed= 109x    size=    4352KiB time=00:04:43.22 bitrate= 125.9kbits/s speed= 110x    size=    5376KiB time=00:05:44.34 bitrate= 127.9kbits/s speed= 111x    size=    6400KiB time=00:06:46.72 bitrate= 128.9kbits/s speed= 113x    size=    7424KiB time=00:07:49.91 bitrate= 129.4kbits/s speed= 114x    size=    8448KiB time=00:08:51.17 bitrate= 130.3kbits/s speed= 114x    size=    9216KiB time=00:09:50.08 bitrate= 127.9kbits/s speed= 114x    size=   10240KiB time=00:10:49.84 bitrate= 129.1kbits/s speed= 114x    [out#0/mp3 @ 00000227aff0f440] video:0KiB audio:11137KiB subtitle:0KiB other streams:0KiB global headers:0KiB muxing overhead: 0.002990%
size=   11138KiB time=00:11:39.57 bitrate= 130.4kbits/s speed= 115x    
ffmpeg version 7.1-essentials_build-www.gyan.dev Copyright (c) 2000-2024 the FFmpeg developers
  built with gcc 14.2.0 (Rev1, Built by MSYS2 project)
  configuration: --enable-gpl --enable-version3 --enable-static --disable-w32threads --disable-autodetect --enable-fontconfig --enable-iconv --enable-gnutls --enable-libxml2 --enable-gmp --enable-bzlib --enable-lzma --enable-zlib --enable-libsrt --enable-libssh --enable-libzmq --enable-avisynth --enable-sdl2 --enable-libwebp --enable-libx264 --enable-libx265 --enable-libxvid --enable-libaom --enable-libopenjpeg --enable-libvpx --enable-mediafoundation --enable-libass --enable-libfreetype --enable-libfribidi --enable-libharfbuzz --enable-libvidstab --enable-libvmaf --enable-libzimg --enable-amf --enable-cuda-llvm --enable-cuvid --enable-dxva2 --enable-d3d11va --enable-d3d12va --enable-ffnvcodec --enable-libvpl --enable-nvdec --enable-nvenc --enable-vaapi --enable-libgme --enable-libopenmpt --enable-libopencore-amrwb --enable-libmp3lame --enable-libtheora --enable-libvo-amrwbenc --enable-libgsm --enable-libopencore-amrnb --enable-libopus --enable-libspeex --enable-libvorbis --enable-librubberband
  libavutil      59. 39.100 / 59. 39.100
  libavcodec     61. 19.100 / 61. 19.100
  libavformat    61.  7.100 / 61.  7.100
  libavdevice    61.  3.100 / 61.  3.100
  libavfilter    10.  4.100 / 10.  4.100
  libswscale      8.  3.100 /  8.  3.100
  libswresample   5.  3.100 /  5.  3.100
  libpostproc    58.  3.100 / 58.  3.100
Input #0, mov,mp4,m4a,3gp,3g2,mj2, from 'C:\Users\vladi\code\text_to_voice\learn_vids\2-3 John_default.mp4':
  Metadata:
    major_brand     : isom
    minor_version   : 1
    compatible_brands: isom
    creation_time   : 2023-12-12T15:27:01.000000Z
    encoder         : GPAC-2.0-rev0-g418db4149-HEAD
  Duration: 00:08:59.94, start: 0.000000, bitrate: 1014 kb/s
  Stream #0:0[0x1](unk): Video: h264 (Main) (avc1 / 0x31637661), yuv420p(tv, bt709, progressive), 1280x720 [SAR 1:1 DAR 16:9], 882 kb/s, 30 fps, 30 tbr, 90k tbn (default)
      Metadata:
        handler_name    : ISO Video Handler
        vendor_id       : [0][0][0][0]
  Stream #0:1[0x2](unk): Audio: aac (LC) (mp4a / 0x6134706D), 44100 Hz, stereo, fltp, 124 kb/s (default)
      Metadata:
        handler_name    : ISO Audio Handler
        vendor_id       : [0][0][0][0]
  Stream #0:2[0x3](eng): Subtitle: mov_text (tx3g / 0x67337874), 1280x720, 0 kb/s (default)
      Metadata:
        creation_time   : 2023-12-12T15:27:01.000000Z
        handler_name    : panopto_EN-US
Stream mapping:
  Stream #0:1 -> #0:0 (aac (native) -> mp3 (libmp3lame))
Press [q] to stop, [?] for help
Output #0, mp3, to 'C:\Users\vladi\code\text_to_voice\learn_vids\mp3\2-3 John_default.mp3':
  Metadata:
    major_brand     : isom
    minor_version   : 1
    compatible_brands: isom
    TSSE            : Lavf61.7.100
  Stream #0:0(unk): Audio: mp3, 44100 Hz, stereo, fltp (default)
      Metadata:
        handler_name    : ISO Audio Handler
        vendor_id       : [0][0][0][0]
        encoder         : Lavc61.19.100 libmp3lame
size=     768KiB time=00:00:57.83 bitrate= 108.8kbits/s speed= 112x    size=    1792KiB time=00:02:00.29 bitrate= 122.0kbits/s speed= 116x    size=    2816KiB time=00:03:04.81 bitrate= 124.8kbits/s speed= 119x    size=    3840KiB time=00:04:10.46 bitrate= 125.6kbits/s speed= 120x    size=    4864KiB time=00:05:14.17 bitrate= 126.8kbits/s speed= 122x    size=    5632KiB time=00:06:16.94 bitrate= 122.4kbits/s speed= 122x    size=    6912KiB time=00:07:23.69 bitrate= 127.6kbits/s speed= 123x    size=    7680KiB time=00:08:27.19 bitrate= 124.0kbits/s speed= 123x    [out#0/mp3 @ 000002979b549900] video:0KiB audio:8450KiB subtitle:0KiB other streams:0KiB global headers:0KiB muxing overhead: 0.003941%
size=    8450KiB time=00:08:59.84 bitrate= 128.2kbits/s speed= 123x    
ffmpeg version 7.1-essentials_build-www.gyan.dev Copyright (c) 2000-2024 the FFmpeg developers
  built with gcc 14.2.0 (Rev1, Built by MSYS2 project)
  configuration: --enable-gpl --enable-version3 --enable-static --disable-w32threads --disable-autodetect --enable-fontconfig --enable-iconv --enable-gnutls --enable-libxml2 --enable-gmp --enable-bzlib --enable-lzma --enable-zlib --enable-libsrt --enable-libssh --enable-libzmq --enable-avisynth --enable-sdl2 --enable-libwebp --enable-libx264 --enable-libx265 --enable-libxvid --enable-libaom --enable-libopenjpeg --enable-libvpx --enable-mediafoundation --enable-libass --enable-libfreetype --enable-libfribidi --enable-libharfbuzz --enable-libvidstab --enable-libvmaf --enable-libzimg --enable-amf --enable-cuda-llvm --enable-cuvid --enable-dxva2 --enable-d3d11va --enable-d3d12va --enable-ffnvcodec --enable-libvpl --enable-nvdec --enable-nvenc --enable-vaapi --enable-libgme --enable-libopenmpt --enable-libopencore-amrwb --enable-libmp3lame --enable-libtheora --enable-libvo-amrwbenc --enable-libgsm --enable-libopencore-amrnb --enable-libopus --enable-libspeex --enable-libvorbis --enable-librubberband
  libavutil      59. 39.100 / 59. 39.100
  libavcodec     61. 19.100 / 61. 19.100
  libavformat    61.  7.100 / 61.  7.100
  libavdevice    61.  3.100 / 61.  3.100
  libavfilter    10.  4.100 / 10.  4.100
  libswscale      8.  3.100 /  8.  3.100
  libswresample   5.  3.100 /  5.  3.100
  libpostproc    58.  3.100 / 58.  3.100
Input #0, mov,mp4,m4a,3gp,3g2,mj2, from 'C:\Users\vladi\code\text_to_voice\learn_vids\Colossians_default.mp4':
  Metadata:
    major_brand     : isom
    minor_version   : 1
    compatible_brands: isom
    creation_time   : 2023-12-05T14:55:37.000000Z
    encoder         : GPAC-2.0-rev0-g418db4149-HEAD
  Duration: 00:07:25.37, start: 0.000000, bitrate: 912 kb/s
  Stream #0:0[0x1](unk): Video: h264 (Main) (avc1 / 0x31637661), yuv420p(tv, bt709, progressive), 1280x720 [SAR 1:1 DAR 16:9], 781 kb/s, 30 fps, 30 tbr, 90k tbn (default)
      Metadata:
        handler_name    : ISO Video Handler
        vendor_id       : [0][0][0][0]
  Stream #0:1[0x2](unk): Audio: aac (LC) (mp4a / 0x6134706D), 44100 Hz, stereo, fltp, 124 kb/s (default)
      Metadata:
        handler_name    : ISO Audio Handler
        vendor_id       : [0][0][0][0]
  Stream #0:2[0x3](eng): Subtitle: mov_text (tx3g / 0x67337874), 1280x720, 0 kb/s (default)
      Metadata:
        creation_time   : 2023-12-05T14:55:37.000000Z
        handler_name    : panopto_EN-US
Stream mapping:
  Stream #0:1 -> #0:0 (aac (native) -> mp3 (libmp3lame))
Press [q] to stop, [?] for help
Output #0, mp3, to 'C:\Users\vladi\code\text_to_voice\learn_vids\mp3\Colossians_default.mp3':
  Metadata:
    major_brand     : isom
    minor_version   : 1
    compatible_brands: isom
    TSSE            : Lavf61.7.100
  Stream #0:0(unk): Audio: mp3, 44100 Hz, stereo, fltp (default)
      Metadata:
        handler_name    : ISO Audio Handler
        vendor_id       : [0][0][0][0]
        encoder         : Lavc61.19.100 libmp3lame
size=     768KiB time=00:00:56.55 bitrate= 111.2kbits/s speed= 112x    size=    1536KiB time=00:01:52.58 bitrate= 111.8kbits/s speed= 109x    size=    2560KiB time=00:02:52.35 bitrate= 121.7kbits/s speed= 112x    size=    3584KiB time=00:03:54.50 bitrate= 125.2kbits/s speed= 114x    size=    4608KiB time=00:04:51.68 bitrate= 129.4kbits/s speed= 113x    size=    5632KiB time=00:05:57.77 bitrate= 129.0kbits/s speed= 116x    size=    6656KiB time=00:07:03.75 bitrate= 128.7kbits/s speed= 118x    [out#0/mp3 @ 000002516549ae00] video:0KiB audio:7040KiB subtitle:0KiB other streams:0KiB global headers:0KiB muxing overhead: 0.004730%
size=    7041KiB time=00:07:25.28 bitrate= 129.5kbits/s speed= 118x    
ffmpeg version 7.1-essentials_build-www.gyan.dev Copyright (c) 2000-2024 the FFmpeg developers
  built with gcc 14.2.0 (Rev1, Built by MSYS2 project)
  configuration: --enable-gpl --enable-version3 --enable-static --disable-w32threads --disable-autodetect --enable-fontconfig --enable-iconv --enable-gnutls --enable-libxml2 --enable-gmp --enable-bzlib --enable-lzma --enable-zlib --enable-libsrt --enable-libssh --enable-libzmq --enable-avisynth --enable-sdl2 --enable-libwebp --enable-libx264 --enable-libx265 --enable-libxvid --enable-libaom --enable-libopenjpeg --enable-libvpx --enable-mediafoundation --enable-libass --enable-libfreetype --enable-libfribidi --enable-libharfbuzz --enable-libvidstab --enable-libvmaf --enable-libzimg --enable-amf --enable-cuda-llvm --enable-cuvid --enable-dxva2 --enable-d3d11va --enable-d3d12va --enable-ffnvcodec --enable-libvpl --enable-nvdec --enable-nvenc --enable-vaapi --enable-libgme --enable-libopenmpt --enable-libopencore-amrwb --enable-libmp3lame --enable-libtheora --enable-libvo-amrwbenc --enable-libgsm --enable-libopencore-amrnb --enable-libopus --enable-libspeex --enable-libvorbis --enable-librubberband
  libavutil      59. 39.100 / 59. 39.100
  libavcodec     61. 19.100 / 61. 19.100
  libavformat    61.  7.100 / 61.  7.100
  libavdevice    61.  3.100 / 61.  3.100
  libavfilter    10.  4.100 / 10.  4.100
  libswscale      8.  3.100 /  8.  3.100
  libswresample   5.  3.100 /  5.  3.100
  libpostproc    58.  3.100 / 58.  3.100
Input #0, mov,mp4,m4a,3gp,3g2,mj2, from 'C:\Users\vladi\code\text_to_voice\learn_vids\Hebrews_default.mp4':
  Metadata:
    major_brand     : isom
    minor_version   : 1
    compatible_brands: isom
    creation_time   : 2023-12-11T15:21:01.000000Z
    encoder         : GPAC-2.0-rev0-g418db4149-HEAD
  Duration: 00:19:39.45, start: 0.000000, bitrate: 612 kb/s
  Stream #0:0[0x1](unk): Video: h264 (Main) (avc1 / 0x31637661), yuv420p(tv, bt709, progressive), 1280x720 [SAR 1:1 DAR 16:9], 481 kb/s, 30 fps, 30 tbr, 90k tbn (default)
      Metadata:
        handler_name    : ISO Video Handler
        vendor_id       : [0][0][0][0]
  Stream #0:1[0x2](unk): Audio: aac (LC) (mp4a / 0x6134706D), 44100 Hz, stereo, fltp, 124 kb/s (default)
      Metadata:
        handler_name    : ISO Audio Handler
        vendor_id       : [0][0][0][0]
  Stream #0:2[0x3](eng): Subtitle: mov_text (tx3g / 0x67337874), 1280x720, 0 kb/s (default)
      Metadata:
        creation_time   : 2023-12-11T15:21:05.000000Z
        handler_name    : panopto_EN-US
Stream mapping:
  Stream #0:1 -> #0:0 (aac (native) -> mp3 (libmp3lame))
Press [q] to stop, [?] for help
Output #0, mp3, to 'C:\Users\vladi\code\text_to_voice\learn_vids\mp3\Hebrews_default.mp3':
  Metadata:
    major_brand     : isom
    minor_version   : 1
    compatible_brands: isom
    TSSE            : Lavf61.7.100
  Stream #0:0(unk): Audio: mp3, 44100 Hz, stereo, fltp (default)
      Metadata:
        handler_name    : ISO Audio Handler
        vendor_id       : [0][0][0][0]
        encoder         : Lavc61.19.100 libmp3lame
size=     768KiB time=00:01:01.75 bitrate= 101.9kbits/s speed= 119x    size=    1792KiB time=00:01:59.77 bitrate= 122.6kbits/s speed= 115x    size=    2816KiB time=00:02:58.88 bitrate= 129.0kbits/s speed= 116x    size=    3840KiB time=00:04:00.45 bitrate= 130.8kbits/s speed= 117x    size=    4864KiB time=00:05:03.98 bitrate= 131.1kbits/s speed= 118x    size=    5888KiB time=00:06:06.96 bitrate= 131.4kbits/s speed= 118x    size=    6912KiB time=00:07:10.68 bitrate= 131.5kbits/s speed= 119x    size=    7936KiB time=00:08:14.55 bitrate= 131.5kbits/s speed= 119x    size=    8704KiB time=00:09:16.17 bitrate= 128.2kbits/s speed= 119x    size=    9728KiB time=00:10:19.07 bitrate= 128.7kbits/s speed= 120x    size=   10752KiB time=00:11:21.27 bitrate= 129.3kbits/s speed= 120x    size=   11776KiB time=00:12:24.62 bitrate= 129.6kbits/s speed= 120x    size=   12800KiB time=00:13:27.52 bitrate= 129.9kbits/s speed= 120x    size=   13824KiB time=00:14:30.32 bitrate= 130.1kbits/s speed= 120x    size=   14848KiB time=00:15:34.81 bitrate= 130.1kbits/s speed= 121x    size=   15872KiB time=00:16:38.21 bitrate= 130.3kbits/s speed= 121x    size=   16896KiB time=00:17:40.41 bitrate= 130.5kbits/s speed= 121x    size=   17920KiB time=00:18:42.61 bitrate= 130.8kbits/s speed= 120x    [out#0/mp3 @ 000001aaaadcb840] video:0KiB audio:18847KiB subtitle:0KiB other streams:0KiB global headers:0KiB muxing overhead: 0.001767%
size=   18847KiB time=00:19:39.36 bitrate= 130.9kbits/s speed= 120x    
ffmpeg version 7.1-essentials_build-www.gyan.dev Copyright (c) 2000-2024 the FFmpeg developers
  built with gcc 14.2.0 (Rev1, Built by MSYS2 project)
  configuration: --enable-gpl --enable-version3 --enable-static --disable-w32threads --disable-autodetect --enable-fontconfig --enable-iconv --enable-gnutls --enable-libxml2 --enable-gmp --enable-bzlib --enable-lzma --enable-zlib --enable-libsrt --enable-libssh --enable-libzmq --enable-avisynth --enable-sdl2 --enable-libwebp --enable-libx264 --enable-libx265 --enable-libxvid --enable-libaom --enable-libopenjpeg --enable-libvpx --enable-mediafoundation --enable-libass --enable-libfreetype --enable-libfribidi --enable-libharfbuzz --enable-libvidstab --enable-libvmaf --enable-libzimg --enable-amf --enable-cuda-llvm --enable-cuvid --enable-dxva2 --enable-d3d11va --enable-d3d12va --enable-ffnvcodec --enable-libvpl --enable-nvdec --enable-nvenc --enable-vaapi --enable-libgme --enable-libopenmpt --enable-libopencore-amrwb --enable-libmp3lame --enable-libtheora --enable-libvo-amrwbenc --enable-libgsm --enable-libopencore-amrnb --enable-libopus --enable-libspeex --enable-libvorbis --enable-librubberband
  libavutil      59. 39.100 / 59. 39.100
  libavcodec     61. 19.100 / 61. 19.100
  libavformat    61.  7.100 / 61.  7.100
  libavdevice    61.  3.100 / 61.  3.100
  libavfilter    10.  4.100 / 10.  4.100
  libswscale      8.  3.100 /  8.  3.100
  libswresample   5.  3.100 /  5.  3.100
  libpostproc    58.  3.100 / 58.  3.100
Input #0, mov,mp4,m4a,3gp,3g2,mj2, from 'C:\Users\vladi\code\text_to_voice\learn_vids\Introduction to the Catholic Epistles_default.mp4':
  Metadata:
    major_brand     : isom
    minor_version   : 1
    compatible_brands: isom
    creation_time   : 2023-12-11T15:22:16.000000Z
    encoder         : GPAC-2.0-rev0-g418db4149-HEAD
  Duration: 00:11:45.17, start: 0.000000, bitrate: 989 kb/s
  Stream #0:0[0x1](unk): Video: h264 (Main) (avc1 / 0x31637661), yuv420p(tv, bt709, progressive), 1280x720 [SAR 1:1 DAR 16:9], 857 kb/s, 30 fps, 30 tbr, 90k tbn (default)
      Metadata:
        handler_name    : ISO Video Handler
        vendor_id       : [0][0][0][0]
  Stream #0:1[0x2](unk): Audio: aac (LC) (mp4a / 0x6134706D), 44100 Hz, stereo, fltp, 124 kb/s (default)
      Metadata:
        handler_name    : ISO Audio Handler
        vendor_id       : [0][0][0][0]
  Stream #0:2[0x3](eng): Subtitle: mov_text (tx3g / 0x67337874), 1280x720, 0 kb/s (default)
      Metadata:
        creation_time   : 2023-12-11T15:22:17.000000Z
        handler_name    : panopto_EN-US
Stream mapping:
  Stream #0:1 -> #0:0 (aac (native) -> mp3 (libmp3lame))
Press [q] to stop, [?] for help
Output #0, mp3, to 'C:\Users\vladi\code\text_to_voice\learn_vids\mp3\Introduction to the Catholic Epistles_default.mp3':
  Metadata:
    major_brand     : isom
    minor_version   : 1
    compatible_brands: isom
    TSSE            : Lavf61.7.100
  Stream #0:0(unk): Audio: mp3, 44100 Hz, stereo, fltp (default)
      Metadata:
        handler_name    : ISO Audio Handler
        vendor_id       : [0][0][0][0]
        encoder         : Lavc61.19.100 libmp3lame
size=     768KiB time=00:00:54.28 bitrate= 115.9kbits/s speed= 108x    size=    1792KiB time=00:01:51.54 bitrate= 131.6kbits/s speed= 108x    size=    2560KiB time=00:02:49.90 bitrate= 123.4kbits/s speed= 110x    size=    3584KiB time=00:03:48.91 bitrate= 128.3kbits/s speed= 111x    size=    4608KiB time=00:04:48.94 bitrate= 130.6kbits/s speed= 113x    size=    5632KiB time=00:05:55.44 bitrate= 129.8kbits/s speed= 115x    size=    6656KiB time=00:07:02.11 bitrate= 129.2kbits/s speed= 117x    size=    7680KiB time=00:08:06.02 bitrate= 129.4kbits/s speed= 118x    size=    8704KiB time=00:09:12.03 bitrate= 129.2kbits/s speed= 119x    size=    9728KiB time=00:10:18.67 bitrate= 128.8kbits/s speed= 120x    size=   10752KiB time=00:11:21.68 bitrate= 129.2kbits/s speed= 120x    [out#0/mp3 @ 0000023b88660040] video:0KiB audio:11374KiB subtitle:0KiB other streams:0KiB global headers:0KiB muxing overhead: 0.002928%
size=   11374KiB time=00:11:45.11 bitrate= 132.1kbits/s speed= 120x    
ffmpeg version 7.1-essentials_build-www.gyan.dev Copyright (c) 2000-2024 the FFmpeg developers
  built with gcc 14.2.0 (Rev1, Built by MSYS2 project)
  configuration: --enable-gpl --enable-version3 --enable-static --disable-w32threads --disable-autodetect --enable-fontconfig --enable-iconv --enable-gnutls --enable-libxml2 --enable-gmp --enable-bzlib --enable-lzma --enable-zlib --enable-libsrt --enable-libssh --enable-libzmq --enable-avisynth --enable-sdl2 --enable-libwebp --enable-libx264 --enable-libx265 --enable-libxvid --enable-libaom --enable-libopenjpeg --enable-libvpx --enable-mediafoundation --enable-libass --enable-libfreetype --enable-libfribidi --enable-libharfbuzz --enable-libvidstab --enable-libvmaf --enable-libzimg --enable-amf --enable-cuda-llvm --enable-cuvid --enable-dxva2 --enable-d3d11va --enable-d3d12va --enable-ffnvcodec --enable-libvpl --enable-nvdec --enable-nvenc --enable-vaapi --enable-libgme --enable-libopenmpt --enable-libopencore-amrwb --enable-libmp3lame --enable-libtheora --enable-libvo-amrwbenc --enable-libgsm --enable-libopencore-amrnb --enable-libopus --enable-libspeex --enable-libvorbis --enable-librubberband
  libavutil      59. 39.100 / 59. 39.100
  libavcodec     61. 19.100 / 61. 19.100
  libavformat    61.  7.100 / 61.  7.100
  libavdevice    61.  3.100 / 61.  3.100
  libavfilter    10.  4.100 / 10.  4.100
  libswscale      8.  3.100 /  8.  3.100
  libswresample   5.  3.100 /  5.  3.100
  libpostproc    58.  3.100 / 58.  3.100
Input #0, mov,mp4,m4a,3gp,3g2,mj2, from 'C:\Users\vladi\code\text_to_voice\learn_vids\Introduction to the Johannine Epistles_default.mp4':
  Metadata:
    major_brand     : isom
    minor_version   : 1
    compatible_brands: isom
    creation_time   : 2023-12-12T15:15:00.000000Z
    encoder         : GPAC-2.0-rev0-g418db4149-HEAD
  Duration: 00:10:28.88, start: 0.000000, bitrate: 634 kb/s
  Stream #0:0[0x1](unk): Video: h264 (Main) (avc1 / 0x31637661), yuv420p(tv, bt709, progressive), 1216x760 [SAR 1:1 DAR 8:5], 502 kb/s, 30 fps, 30 tbr, 90k tbn (default)
      Metadata:
        handler_name    : ISO Video Handler
        vendor_id       : [0][0][0][0]
  Stream #0:1[0x2](unk): Audio: aac (LC) (mp4a / 0x6134706D), 44100 Hz, stereo, fltp, 124 kb/s (default)
      Metadata:
        handler_name    : ISO Audio Handler
        vendor_id       : [0][0][0][0]
  Stream #0:2[0x3](eng): Subtitle: mov_text (tx3g / 0x67337874), 1216x760, 0 kb/s (default)
      Metadata:
        creation_time   : 2023-12-12T15:15:01.000000Z
        handler_name    : panopto_EN-US
Stream mapping:
  Stream #0:1 -> #0:0 (aac (native) -> mp3 (libmp3lame))
Press [q] to stop, [?] for help
Output #0, mp3, to 'C:\Users\vladi\code\text_to_voice\learn_vids\mp3\Introduction to the Johannine Epistles_default.mp3':
  Metadata:
    major_brand     : isom
    minor_version   : 1
    compatible_brands: isom
    TSSE            : Lavf61.7.100
  Stream #0:0(unk): Audio: mp3, 44100 Hz, stereo, fltp (default)
      Metadata:
        handler_name    : ISO Audio Handler
        vendor_id       : [0][0][0][0]
        encoder         : Lavc61.19.100 libmp3lame
size=    1024KiB time=00:01:05.35 bitrate= 128.3kbits/s speed= 126x    size=    2048KiB time=00:02:13.09 bitrate= 126.1kbits/s speed= 127x    size=    3072KiB time=00:03:17.40 bitrate= 127.5kbits/s speed= 127x    size=    4096KiB time=00:04:24.28 bitrate= 127.0kbits/s speed= 127x    size=    5120KiB time=00:05:31.62 bitrate= 126.5kbits/s speed= 128x    size=    6144KiB time=00:06:35.20 bitrate= 127.4kbits/s speed= 127x    size=    7168KiB time=00:07:39.54 bitrate= 127.8kbits/s speed= 127x    size=    8192KiB time=00:08:45.66 bitrate= 127.7kbits/s speed= 127x    size=    9216KiB time=00:09:49.34 bitrate= 128.1kbits/s speed= 127x    [out#0/mp3 @ 00000126abbc6b40] video:0KiB audio:9943KiB subtitle:0KiB other streams:0KiB global headers:0KiB muxing overhead: 0.003349%
size=    9943KiB time=00:10:28.77 bitrate= 129.5kbits/s speed= 127x    
ffmpeg version 7.1-essentials_build-www.gyan.dev Copyright (c) 2000-2024 the FFmpeg developers
  built with gcc 14.2.0 (Rev1, Built by MSYS2 project)
  configuration: --enable-gpl --enable-version3 --enable-static --disable-w32threads --disable-autodetect --enable-fontconfig --enable-iconv --enable-gnutls --enable-libxml2 --enable-gmp --enable-bzlib --enable-lzma --enable-zlib --enable-libsrt --enable-libssh --enable-libzmq --enable-avisynth --enable-sdl2 --enable-libwebp --enable-libx264 --enable-libx265 --enable-libxvid --enable-libaom --enable-libopenjpeg --enable-libvpx --enable-mediafoundation --enable-libass --enable-libfreetype --enable-libfribidi --enable-libharfbuzz --enable-libvidstab --enable-libvmaf --enable-libzimg --enable-amf --enable-cuda-llvm --enable-cuvid --enable-dxva2 --enable-d3d11va --enable-d3d12va --enable-ffnvcodec --enable-libvpl --enable-nvdec --enable-nvenc --enable-vaapi --enable-libgme --enable-libopenmpt --enable-libopencore-amrwb --enable-libmp3lame --enable-libtheora --enable-libvo-amrwbenc --enable-libgsm --enable-libopencore-amrnb --enable-libopus --enable-libspeex --enable-libvorbis --enable-librubberband
  libavutil      59. 39.100 / 59. 39.100
  libavcodec     61. 19.100 / 61. 19.100
  libavformat    61.  7.100 / 61.  7.100
  libavdevice    61.  3.100 / 61.  3.100
  libavfilter    10.  4.100 / 10.  4.100
  libswscale      8.  3.100 /  8.  3.100
  libswresample   5.  3.100 /  5.  3.100
  libpostproc    58.  3.100 / 58.  3.100
Input #0, mov,mp4,m4a,3gp,3g2,mj2, from 'C:\Users\vladi\code\text_to_voice\learn_vids\James 2_default.mp4':
  Metadata:
    major_brand     : isom
    minor_version   : 1
    compatible_brands: isom
    creation_time   : 2023-12-11T15:27:01.000000Z
    encoder         : GPAC-2.0-rev0-g418db4149-HEAD
  Duration: 00:14:14.81, start: 0.000000, bitrate: 501 kb/s
  Stream #0:0[0x1](unk): Video: h264 (Main) (avc1 / 0x31637661), yuv420p(tv, bt709, progressive), 1280x720 [SAR 1:1 DAR 16:9], 369 kb/s, 30 fps, 30 tbr, 90k tbn (default)
      Metadata:
        handler_name    : ISO Video Handler
        vendor_id       : [0][0][0][0]
  Stream #0:1[0x2](unk): Audio: aac (LC) (mp4a / 0x6134706D), 44100 Hz, stereo, fltp, 124 kb/s (default)
      Metadata:
        handler_name    : ISO Audio Handler
        vendor_id       : [0][0][0][0]
  Stream #0:2[0x3](eng): Subtitle: mov_text (tx3g / 0x67337874), 1280x720, 0 kb/s (default)
      Metadata:
        creation_time   : 2023-12-11T15:27:02.000000Z
        handler_name    : panopto_EN-US
Stream mapping:
  Stream #0:1 -> #0:0 (aac (native) -> mp3 (libmp3lame))
Press [q] to stop, [?] for help
Output #0, mp3, to 'C:\Users\vladi\code\text_to_voice\learn_vids\mp3\James 2_default.mp3':
  Metadata:
    major_brand     : isom
    minor_version   : 1
    compatible_brands: isom
    TSSE            : Lavf61.7.100
  Stream #0:0(unk): Audio: mp3, 44100 Hz, stereo, fltp (default)
      Metadata:
        handler_name    : ISO Audio Handler
        vendor_id       : [0][0][0][0]
        encoder         : Lavc61.19.100 libmp3lame
size=     768KiB time=00:01:01.85 bitrate= 101.7kbits/s speed= 122x    size=    2048KiB time=00:02:10.43 bitrate= 128.6kbits/s speed= 128x    size=    3072KiB time=00:03:19.18 bitrate= 126.3kbits/s speed= 128x    size=    4096KiB time=00:04:29.03 bitrate= 124.7kbits/s speed= 129x    size=    5120KiB time=00:05:32.82 bitrate= 126.0kbits/s speed= 128x    size=    6144KiB time=00:06:41.26 bitrate= 125.4kbits/s speed= 128x    size=    7424KiB time=00:07:46.70 bitrate= 130.3kbits/s speed= 128x    size=    8448KiB time=00:08:51.98 bitrate= 130.1kbits/s speed= 128x    size=    9472KiB time=00:09:58.98 bitrate= 129.5kbits/s speed= 128x    size=   10496KiB time=00:11:04.00 bitrate= 129.5kbits/s speed= 128x    size=   11520KiB time=00:12:12.18 bitrate= 128.9kbits/s speed= 128x    size=   12544KiB time=00:13:19.16 bitrate= 128.6kbits/s speed= 128x    size=   13312KiB time=00:13:57.79 bitrate= 130.2kbits/s speed= 124x    [out#0/mp3 @ 000001f974541a80] video:0KiB audio:13615KiB subtitle:0KiB other streams:0KiB global headers:0KiB muxing overhead: 0.002446%
size=   13616KiB time=00:14:14.75 bitrate= 130.5kbits/s speed= 122x    
ffmpeg version 7.1-essentials_build-www.gyan.dev Copyright (c) 2000-2024 the FFmpeg developers
  built with gcc 14.2.0 (Rev1, Built by MSYS2 project)
  configuration: --enable-gpl --enable-version3 --enable-static --disable-w32threads --disable-autodetect --enable-fontconfig --enable-iconv --enable-gnutls --enable-libxml2 --enable-gmp --enable-bzlib --enable-lzma --enable-zlib --enable-libsrt --enable-libssh --enable-libzmq --enable-avisynth --enable-sdl2 --enable-libwebp --enable-libx264 --enable-libx265 --enable-libxvid --enable-libaom --enable-libopenjpeg --enable-libvpx --enable-mediafoundation --enable-libass --enable-libfreetype --enable-libfribidi --enable-libharfbuzz --enable-libvidstab --enable-libvmaf --enable-libzimg --enable-amf --enable-cuda-llvm --enable-cuvid --enable-dxva2 --enable-d3d11va --enable-d3d12va --enable-ffnvcodec --enable-libvpl --enable-nvdec --enable-nvenc --enable-vaapi --enable-libgme --enable-libopenmpt --enable-libopencore-amrwb --enable-libmp3lame --enable-libtheora --enable-libvo-amrwbenc --enable-libgsm --enable-libopencore-amrnb --enable-libopus --enable-libspeex --enable-libvorbis --enable-librubberband
  libavutil      59. 39.100 / 59. 39.100
  libavcodec     61. 19.100 / 61. 19.100
  libavformat    61.  7.100 / 61.  7.100
  libavdevice    61.  3.100 / 61.  3.100
  libavfilter    10.  4.100 / 10.  4.100
  libswscale      8.  3.100 /  8.  3.100
  libswresample   5.  3.100 /  5.  3.100
  libpostproc    58.  3.100 / 58.  3.100
Input #0, mov,mp4,m4a,3gp,3g2,mj2, from 'C:\Users\vladi\code\text_to_voice\learn_vids\James_default.mp4':
  Metadata:
    major_brand     : isom
    minor_version   : 1
    compatible_brands: isom
    creation_time   : 2023-12-11T15:20:42.000000Z
    encoder         : GPAC-2.0-rev0-g418db4149-HEAD
  Duration: 00:09:18.06, start: 0.000000, bitrate: 631 kb/s
  Stream #0:0[0x1](unk): Video: h264 (Main) (avc1 / 0x31637661), yuv420p(tv, bt709, progressive), 1280x720 [SAR 1:1 DAR 16:9], 500 kb/s, 30 fps, 30 tbr, 90k tbn (default)
      Metadata:
        handler_name    : ISO Video Handler
        vendor_id       : [0][0][0][0]
  Stream #0:1[0x2](unk): Audio: aac (LC) (mp4a / 0x6134706D), 44100 Hz, stereo, fltp, 124 kb/s (default)
      Metadata:
        handler_name    : ISO Audio Handler
        vendor_id       : [0][0][0][0]
  Stream #0:2[0x3](eng): Subtitle: mov_text (tx3g / 0x67337874), 1280x720, 0 kb/s (default)
      Metadata:
        creation_time   : 2023-12-11T15:20:43.000000Z
        handler_name    : panopto_EN-US
Stream mapping:
  Stream #0:1 -> #0:0 (aac (native) -> mp3 (libmp3lame))
Press [q] to stop, [?] for help
Output #0, mp3, to 'C:\Users\vladi\code\text_to_voice\learn_vids\mp3\James_default.mp3':
  Metadata:
    major_brand     : isom
    minor_version   : 1
    compatible_brands: isom
    TSSE            : Lavf61.7.100
  Stream #0:0(unk): Audio: mp3, 44100 Hz, stereo, fltp (default)
      Metadata:
        handler_name    : ISO Audio Handler
        vendor_id       : [0][0][0][0]
        encoder         : Lavc61.19.100 libmp3lame
size=     768KiB time=00:01:01.17 bitrate= 102.8kbits/s speed= 120x    size=    1792KiB time=00:02:06.85 bitrate= 115.7kbits/s speed= 123x    size=    2816KiB time=00:03:11.79 bitrate= 120.3kbits/s speed= 124x    size=    3840KiB time=00:04:17.25 bitrate= 122.3kbits/s speed= 125x    size=    4864KiB time=00:05:21.35 bitrate= 124.0kbits/s speed= 124x    size=    5888KiB time=00:06:25.90 bitrate= 125.0kbits/s speed= 125x    size=    6912KiB time=00:07:30.16 bitrate= 125.8kbits/s speed= 125x    size=    7936KiB time=00:08:29.62 bitrate= 127.6kbits/s speed= 123x    [out#0/mp3 @ 0000021bc8cf7a00] video:0KiB audio:8880KiB subtitle:0KiB other streams:0KiB global headers:0KiB muxing overhead: 0.003750%
size=    8880KiB time=00:09:17.95 bitrate= 130.4kbits/s speed= 123x    
ffmpeg version 7.1-essentials_build-www.gyan.dev Copyright (c) 2000-2024 the FFmpeg developers
  built with gcc 14.2.0 (Rev1, Built by MSYS2 project)
  configuration: --enable-gpl --enable-version3 --enable-static --disable-w32threads --disable-autodetect --enable-fontconfig --enable-iconv --enable-gnutls --enable-libxml2 --enable-gmp --enable-bzlib --enable-lzma --enable-zlib --enable-libsrt --enable-libssh --enable-libzmq --enable-avisynth --enable-sdl2 --enable-libwebp --enable-libx264 --enable-libx265 --enable-libxvid --enable-libaom --enable-libopenjpeg --enable-libvpx --enable-mediafoundation --enable-libass --enable-libfreetype --enable-libfribidi --enable-libharfbuzz --enable-libvidstab --enable-libvmaf --enable-libzimg --enable-amf --enable-cuda-llvm --enable-cuvid --enable-dxva2 --enable-d3d11va --enable-d3d12va --enable-ffnvcodec --enable-libvpl --enable-nvdec --enable-nvenc --enable-vaapi --enable-libgme --enable-libopenmpt --enable-libopencore-amrwb --enable-libmp3lame --enable-libtheora --enable-libvo-amrwbenc --enable-libgsm --enable-libopencore-amrnb --enable-libopus --enable-libspeex --enable-libvorbis --enable-librubberband
  libavutil      59. 39.100 / 59. 39.100
  libavcodec     61. 19.100 / 61. 19.100
  libavformat    61.  7.100 / 61.  7.100
  libavdevice    61.  3.100 / 61.  3.100
  libavfilter    10.  4.100 / 10.  4.100
  libswscale      8.  3.100 /  8.  3.100
  libswresample   5.  3.100 /  5.  3.100
  libpostproc    58.  3.100 / 58.  3.100
Input #0, mov,mp4,m4a,3gp,3g2,mj2, from 'C:\Users\vladi\code\text_to_voice\learn_vids\Jude_default.mp4':
  Metadata:
    major_brand     : isom
    minor_version   : 1
    compatible_brands: isom
    creation_time   : 2023-12-12T15:28:25.000000Z
    encoder         : GPAC-2.0-rev0-g418db4149-HEAD
  Duration: 00:09:02.61, start: 0.000000, bitrate: 782 kb/s
  Stream #0:0[0x1](unk): Video: h264 (Main) (avc1 / 0x31637661), yuv420p(tv, bt709, progressive), 1280x720 [SAR 1:1 DAR 16:9], 651 kb/s, 30.01 fps, 30 tbr, 90k tbn (default)
      Metadata:
        handler_name    : ISO Video Handler
        vendor_id       : [0][0][0][0]
  Stream #0:1[0x2](unk): Audio: aac (LC) (mp4a / 0x6134706D), 44100 Hz, stereo, fltp, 124 kb/s (default)
      Metadata:
        handler_name    : ISO Audio Handler
        vendor_id       : [0][0][0][0]
  Stream #0:2[0x3](eng): Subtitle: mov_text (tx3g / 0x67337874), 1280x720, 0 kb/s (default)
      Metadata:
        creation_time   : 2023-12-12T15:28:25.000000Z
        handler_name    : panopto_EN-US
Stream mapping:
  Stream #0:1 -> #0:0 (aac (native) -> mp3 (libmp3lame))
Press [q] to stop, [?] for help
Output #0, mp3, to 'C:\Users\vladi\code\text_to_voice\learn_vids\mp3\Jude_default.mp3':
  Metadata:
    major_brand     : isom
    minor_version   : 1
    compatible_brands: isom
    TSSE            : Lavf61.7.100
  Stream #0:0(unk): Audio: mp3, 44100 Hz, stereo, fltp (default)
      Metadata:
        handler_name    : ISO Audio Handler
        vendor_id       : [0][0][0][0]
        encoder         : Lavc61.19.100 libmp3lame
size=     768KiB time=00:01:00.10 bitrate= 104.7kbits/s speed= 117x    size=    1792KiB time=00:02:04.03 bitrate= 118.4kbits/s speed= 120x    size=    2816KiB time=00:03:08.84 bitrate= 122.2kbits/s speed= 122x    size=    3840KiB time=00:04:12.03 bitrate= 124.8kbits/s speed= 122x    size=    4864KiB time=00:05:16.37 bitrate= 125.9kbits/s speed= 123x    size=    5888KiB time=00:06:20.84 bitrate= 126.7kbits/s speed= 123x    size=    6912KiB time=00:07:24.26 bitrate= 127.5kbits/s speed= 123x    size=    7936KiB time=00:08:29.10 bitrate= 127.7kbits/s speed= 123x    [out#0/mp3 @ 00000225e8095200] video:0KiB audio:8514KiB subtitle:0KiB other streams:0KiB global headers:0KiB muxing overhead: 0.003911%
size=    8514KiB time=00:09:02.51 bitrate= 128.6kbits/s speed= 123x    
ffmpeg version 7.1-essentials_build-www.gyan.dev Copyright (c) 2000-2024 the FFmpeg developers
  built with gcc 14.2.0 (Rev1, Built by MSYS2 project)
  configuration: --enable-gpl --enable-version3 --enable-static --disable-w32threads --disable-autodetect --enable-fontconfig --enable-iconv --enable-gnutls --enable-libxml2 --enable-gmp --enable-bzlib --enable-lzma --enable-zlib --enable-libsrt --enable-libssh --enable-libzmq --enable-avisynth --enable-sdl2 --enable-libwebp --enable-libx264 --enable-libx265 --enable-libxvid --enable-libaom --enable-libopenjpeg --enable-libvpx --enable-mediafoundation --enable-libass --enable-libfreetype --enable-libfribidi --enable-libharfbuzz --enable-libvidstab --enable-libvmaf --enable-libzimg --enable-amf --enable-cuda-llvm --enable-cuvid --enable-dxva2 --enable-d3d11va --enable-d3d12va --enable-ffnvcodec --enable-libvpl --enable-nvdec --enable-nvenc --enable-vaapi --enable-libgme --enable-libopenmpt --enable-libopencore-amrwb --enable-libmp3lame --enable-libtheora --enable-libvo-amrwbenc --enable-libgsm --enable-libopencore-amrnb --enable-libopus --enable-libspeex --enable-libvorbis --enable-librubberband
  libavutil      59. 39.100 / 59. 39.100
  libavcodec     61. 19.100 / 61. 19.100
  libavformat    61.  7.100 / 61.  7.100
  libavdevice    61.  3.100 / 61.  3.100
  libavfilter    10.  4.100 / 10.  4.100
  libswscale      8.  3.100 /  8.  3.100
  libswresample   5.  3.100 /  5.  3.100
  libpostproc    58.  3.100 / 58.  3.100
Input #0, mov,mp4,m4a,3gp,3g2,mj2, from 'C:\Users\vladi\code\text_to_voice\learn_vids\Pastoral Epistles_default.mp4':
  Metadata:
    major_brand     : isom
    minor_version   : 1
    compatible_brands: isom
    creation_time   : 2023-12-06T14:49:46.000000Z
    encoder         : GPAC-2.0-rev0-g418db4149-HEAD
  Duration: 00:19:46.34, start: 0.000000, bitrate: 587 kb/s
  Stream #0:0[0x1](unk): Video: h264 (Main) (avc1 / 0x31637661), yuv420p(tv, bt709, progressive), 1280x720 [SAR 1:1 DAR 16:9], 455 kb/s, 30.01 fps, 30 tbr, 90k tbn (default)
      Metadata:
        handler_name    : ISO Video Handler
        vendor_id       : [0][0][0][0]
  Stream #0:1[0x2](unk): Audio: aac (LC) (mp4a / 0x6134706D), 44100 Hz, stereo, fltp, 124 kb/s (default)
      Metadata:
        handler_name    : ISO Audio Handler
        vendor_id       : [0][0][0][0]
  Stream #0:2[0x3](eng): Subtitle: mov_text (tx3g / 0x67337874), 1280x720, 0 kb/s (default)
      Metadata:
        creation_time   : 2023-12-06T14:49:48.000000Z
        handler_name    : panopto_EN-US
Stream mapping:
  Stream #0:1 -> #0:0 (aac (native) -> mp3 (libmp3lame))
Press [q] to stop, [?] for help
Output #0, mp3, to 'C:\Users\vladi\code\text_to_voice\learn_vids\mp3\Pastoral Epistles_default.mp3':
  Metadata:
    major_brand     : isom
    minor_version   : 1
    compatible_brands: isom
    TSSE            : Lavf61.7.100
  Stream #0:0(unk): Audio: mp3, 44100 Hz, stereo, fltp (default)
      Metadata:
        handler_name    : ISO Audio Handler
        vendor_id       : [0][0][0][0]
        encoder         : Lavc61.19.100 libmp3lame
size=     768KiB time=00:01:02.01 bitrate= 101.4kbits/s speed= 121x    size=    1792KiB time=00:01:56.21 bitrate= 126.3kbits/s speed= 113x    size=    2816KiB time=00:02:54.47 bitrate= 132.2kbits/s speed= 114x    size=    3584KiB time=00:03:53.64 bitrate= 125.7kbits/s speed= 114x    size=    4608KiB time=00:04:55.39 bitrate= 127.8kbits/s speed= 115x    size=    5632KiB time=00:05:56.12 bitrate= 129.6kbits/s speed= 115x    size=    6400KiB time=00:06:50.43 bitrate= 127.7kbits/s speed= 114x    size=    7168KiB time=00:07:42.00 bitrate= 127.1kbits/s speed= 112x    size=    8192KiB time=00:08:34.29 bitrate= 130.5kbits/s speed= 111x    size=    8960KiB time=00:09:23.27 bitrate= 130.3kbits/s speed= 109x    size=    9728KiB time=00:10:13.27 bitrate= 129.9kbits/s speed= 108x    size=   10240KiB time=00:10:53.45 bitrate= 128.4kbits/s speed= 106x    size=   11008KiB time=00:11:37.13 bitrate= 129.4kbits/s speed= 104x    size=   12032KiB time=00:12:29.71 bitrate= 131.5kbits/s speed= 104x    size=   12800KiB time=00:13:23.65 bitrate= 130.5kbits/s speed= 104x    size=   13824KiB time=00:14:26.40 bitrate= 130.7kbits/s speed= 105x    size=   14848KiB time=00:15:29.59 bitrate= 130.8kbits/s speed= 106x    size=   15872KiB time=00:16:34.03 bitrate= 130.8kbits/s speed= 107x    size=   16896KiB time=00:17:37.98 bitrate= 130.8kbits/s speed= 108x    size=   17920KiB time=00:18:40.26 bitrate= 131.0kbits/s speed= 109x    size=   18944KiB time=00:19:43.84 bitrate= 131.1kbits/s speed= 109x    [out#0/mp3 @ 00000257a56aebc0] video:0KiB audio:19057KiB subtitle:0KiB other streams:0KiB global headers:0KiB muxing overhead: 0.001747%
size=   19057KiB time=00:19:46.26 bitrate= 131.6kbits/s speed= 109x    
ffmpeg version 7.1-essentials_build-www.gyan.dev Copyright (c) 2000-2024 the FFmpeg developers
  built with gcc 14.2.0 (Rev1, Built by MSYS2 project)
  configuration: --enable-gpl --enable-version3 --enable-static --disable-w32threads --disable-autodetect --enable-fontconfig --enable-iconv --enable-gnutls --enable-libxml2 --enable-gmp --enable-bzlib --enable-lzma --enable-zlib --enable-libsrt --enable-libssh --enable-libzmq --enable-avisynth --enable-sdl2 --enable-libwebp --enable-libx264 --enable-libx265 --enable-libxvid --enable-libaom --enable-libopenjpeg --enable-libvpx --enable-mediafoundation --enable-libass --enable-libfreetype --enable-libfribidi --enable-libharfbuzz --enable-libvidstab --enable-libvmaf --enable-libzimg --enable-amf --enable-cuda-llvm --enable-cuvid --enable-dxva2 --enable-d3d11va --enable-d3d12va --enable-ffnvcodec --enable-libvpl --enable-nvdec --enable-nvenc --enable-vaapi --enable-libgme --enable-libopenmpt --enable-libopencore-amrwb --enable-libmp3lame --enable-libtheora --enable-libvo-amrwbenc --enable-libgsm --enable-libopencore-amrnb --enable-libopus --enable-libspeex --enable-libvorbis --enable-librubberband
  libavutil      59. 39.100 / 59. 39.100
  libavcodec     61. 19.100 / 61. 19.100
  libavformat    61.  7.100 / 61.  7.100
  libavdevice    61.  3.100 / 61.  3.100
  libavfilter    10.  4.100 / 10.  4.100
  libswscale      8.  3.100 /  8.  3.100
  libswresample   5.  3.100 /  5.  3.100
  libpostproc    58.  3.100 / 58.  3.100
Input #0, mov,mp4,m4a,3gp,3g2,mj2, from 'C:\Users\vladi\code\text_to_voice\learn_vids\Philemon_default.mp4':
  Metadata:
    major_brand     : isom
    minor_version   : 1
    compatible_brands: isom
    creation_time   : 2023-12-06T22:08:00.000000Z
    encoder         : GPAC-2.0-rev0-g418db4149-HEAD
  Duration: 00:14:40.63, start: 0.000000, bitrate: 613 kb/s
  Stream #0:0[0x1](unk): Video: h264 (Main) (avc1 / 0x31637661), yuv420p(tv, bt709, progressive), 1280x720 [SAR 1:1 DAR 16:9], 481 kb/s, 30 fps, 30 tbr, 90k tbn (default)
      Metadata:
        handler_name    : ISO Video Handler
        vendor_id       : [0][0][0][0]
  Stream #0:1[0x2](unk): Audio: aac (LC) (mp4a / 0x6134706D), 44100 Hz, stereo, fltp, 124 kb/s (default)
      Metadata:
        handler_name    : ISO Audio Handler
        vendor_id       : [0][0][0][0]
  Stream #0:2[0x3](eng): Subtitle: mov_text (tx3g / 0x67337874), 1280x720, 0 kb/s (default)
      Metadata:
        creation_time   : 2023-12-06T22:08:01.000000Z
        handler_name    : panopto_EN-US
Stream mapping:
  Stream #0:1 -> #0:0 (aac (native) -> mp3 (libmp3lame))
Press [q] to stop, [?] for help
Output #0, mp3, to 'C:\Users\vladi\code\text_to_voice\learn_vids\mp3\Philemon_default.mp3':
  Metadata:
    major_brand     : isom
    minor_version   : 1
    compatible_brands: isom
    TSSE            : Lavf61.7.100
  Stream #0:0(unk): Audio: mp3, 44100 Hz, stereo, fltp (default)
      Metadata:
        handler_name    : ISO Audio Handler
        vendor_id       : [0][0][0][0]
        encoder         : Lavc61.19.100 libmp3lame
size=     768KiB time=00:01:01.57 bitrate= 102.2kbits/s speed= 120x    size=    1792KiB time=00:02:03.50 bitrate= 118.9kbits/s speed= 120x    size=    2816KiB time=00:03:09.04 bitrate= 122.0kbits/s speed= 122x    size=    3840KiB time=00:04:12.23 bitrate= 124.7kbits/s speed= 122x    size=    4864KiB time=00:05:17.85 bitrate= 125.4kbits/s speed= 123x    size=    5888KiB time=00:06:22.14 bitrate= 126.2kbits/s speed= 123x    size=    6912KiB time=00:07:24.73 bitrate= 127.3kbits/s speed= 123x    size=    7680KiB time=00:08:24.84 bitrate= 124.6kbits/s speed= 122x    size=    8704KiB time=00:09:27.27 bitrate= 125.7kbits/s speed= 122x    size=    9728KiB time=00:10:29.18 bitrate= 126.7kbits/s speed= 122x    size=   10496KiB time=00:11:26.06 bitrate= 125.3kbits/s speed= 121x    size=   11520KiB time=00:12:30.06 bitrate= 125.8kbits/s speed= 121x    size=   12544KiB time=00:13:31.44 bitrate= 126.6kbits/s speed= 121x    size=   13568KiB time=00:14:34.32 bitrate= 127.1kbits/s speed= 121x    [out#0/mp3 @ 000001e550b46dc0] video:0KiB audio:13816KiB subtitle:0KiB other streams:0KiB global headers:0KiB muxing overhead: 0.002410%
size=   13816KiB time=00:14:40.55 bitrate= 128.5kbits/s speed= 121x    
ffmpeg version 7.1-essentials_build-www.gyan.dev Copyright (c) 2000-2024 the FFmpeg developers
  built with gcc 14.2.0 (Rev1, Built by MSYS2 project)
  configuration: --enable-gpl --enable-version3 --enable-static --disable-w32threads --disable-autodetect --enable-fontconfig --enable-iconv --enable-gnutls --enable-libxml2 --enable-gmp --enable-bzlib --enable-lzma --enable-zlib --enable-libsrt --enable-libssh --enable-libzmq --enable-avisynth --enable-sdl2 --enable-libwebp --enable-libx264 --enable-libx265 --enable-libxvid --enable-libaom --enable-libopenjpeg --enable-libvpx --enable-mediafoundation --enable-libass --enable-libfreetype --enable-libfribidi --enable-libharfbuzz --enable-libvidstab --enable-libvmaf --enable-libzimg --enable-amf --enable-cuda-llvm --enable-cuvid --enable-dxva2 --enable-d3d11va --enable-d3d12va --enable-ffnvcodec --enable-libvpl --enable-nvdec --enable-nvenc --enable-vaapi --enable-libgme --enable-libopenmpt --enable-libopencore-amrwb --enable-libmp3lame --enable-libtheora --enable-libvo-amrwbenc --enable-libgsm --enable-libopencore-amrnb --enable-libopus --enable-libspeex --enable-libvorbis --enable-librubberband
  libavutil      59. 39.100 / 59. 39.100
  libavcodec     61. 19.100 / 61. 19.100
  libavformat    61.  7.100 / 61.  7.100
  libavdevice    61.  3.100 / 61.  3.100
  libavfilter    10.  4.100 / 10.  4.100
  libswscale      8.  3.100 /  8.  3.100
  libswresample   5.  3.100 /  5.  3.100
  libpostproc    58.  3.100 / 58.  3.100
Input #0, mov,mp4,m4a,3gp,3g2,mj2, from 'C:\Users\vladi\code\text_to_voice\learn_vids\Philippians_default.mp4':
  Metadata:
    major_brand     : isom
    minor_version   : 1
    compatible_brands: isom
    creation_time   : 2023-12-05T14:56:36.000000Z
    encoder         : GPAC-2.0-rev0-g418db4149-HEAD
  Duration: 00:08:53.86, start: 0.000000, bitrate: 879 kb/s
  Stream #0:0[0x1](unk): Video: h264 (Main) (avc1 / 0x31637661), yuv420p(tv, bt709, progressive), 1280x720 [SAR 1:1 DAR 16:9], 747 kb/s, 30.01 fps, 30 tbr, 90k tbn (default)
      Metadata:
        handler_name    : ISO Video Handler
        vendor_id       : [0][0][0][0]
  Stream #0:1[0x2](unk): Audio: aac (LC) (mp4a / 0x6134706D), 44100 Hz, stereo, fltp, 124 kb/s (default)
      Metadata:
        handler_name    : ISO Audio Handler
        vendor_id       : [0][0][0][0]
  Stream #0:2[0x3](eng): Subtitle: mov_text (tx3g / 0x67337874), 1280x720, 0 kb/s (default)
      Metadata:
        creation_time   : 2023-12-05T14:56:37.000000Z
        handler_name    : panopto_EN-US
Stream mapping:
  Stream #0:1 -> #0:0 (aac (native) -> mp3 (libmp3lame))
Press [q] to stop, [?] for help
Output #0, mp3, to 'C:\Users\vladi\code\text_to_voice\learn_vids\mp3\Philippians_default.mp3':
  Metadata:
    major_brand     : isom
    minor_version   : 1
    compatible_brands: isom
    TSSE            : Lavf61.7.100
  Stream #0:0(unk): Audio: mp3, 44100 Hz, stereo, fltp (default)
      Metadata:
        handler_name    : ISO Audio Handler
        vendor_id       : [0][0][0][0]
        encoder         : Lavc61.19.100 libmp3lame
size=     768KiB time=00:00:57.33 bitrate= 109.7kbits/s speed= 111x    size=    1792KiB time=00:01:58.54 bitrate= 123.8kbits/s speed= 113x    size=    2816KiB time=00:03:01.34 bitrate= 127.2kbits/s speed= 116x    size=    3840KiB time=00:04:05.36 bitrate= 128.2kbits/s speed= 117x    size=    4864KiB time=00:05:08.32 bitrate= 129.2kbits/s speed= 117x    size=    5632KiB time=00:06:10.39 bitrate= 124.6kbits/s speed= 118x    size=    6656KiB time=00:07:14.23 bitrate= 125.6kbits/s speed= 118x    size=    7680KiB time=00:08:19.20 bitrate= 126.0kbits/s speed= 119x    [out#0/mp3 @ 0000021730a46040] video:0KiB audio:8487KiB subtitle:0KiB other streams:0KiB global headers:0KiB muxing overhead: 0.003924%
size=    8488KiB time=00:08:53.78 bitrate= 130.3kbits/s speed= 119x    
ffmpeg version 7.1-essentials_build-www.gyan.dev Copyright (c) 2000-2024 the FFmpeg developers
  built with gcc 14.2.0 (Rev1, Built by MSYS2 project)
  configuration: --enable-gpl --enable-version3 --enable-static --disable-w32threads --disable-autodetect --enable-fontconfig --enable-iconv --enable-gnutls --enable-libxml2 --enable-gmp --enable-bzlib --enable-lzma --enable-zlib --enable-libsrt --enable-libssh --enable-libzmq --enable-avisynth --enable-sdl2 --enable-libwebp --enable-libx264 --enable-libx265 --enable-libxvid --enable-libaom --enable-libopenjpeg --enable-libvpx --enable-mediafoundation --enable-libass --enable-libfreetype --enable-libfribidi --enable-libharfbuzz --enable-libvidstab --enable-libvmaf --enable-libzimg --enable-amf --enable-cuda-llvm --enable-cuvid --enable-dxva2 --enable-d3d11va --enable-d3d12va --enable-ffnvcodec --enable-libvpl --enable-nvdec --enable-nvenc --enable-vaapi --enable-libgme --enable-libopenmpt --enable-libopencore-amrwb --enable-libmp3lame --enable-libtheora --enable-libvo-amrwbenc --enable-libgsm --enable-libopencore-amrnb --enable-libopus --enable-libspeex --enable-libvorbis --enable-librubberband
  libavutil      59. 39.100 / 59. 39.100
  libavcodec     61. 19.100 / 61. 19.100
  libavformat    61.  7.100 / 61.  7.100
  libavdevice    61.  3.100 / 61.  3.100
  libavfilter    10.  4.100 / 10.  4.100
  libswscale      8.  3.100 /  8.  3.100
  libswresample   5.  3.100 /  5.  3.100
  libpostproc    58.  3.100 / 58.  3.100
Input #0, mov,mp4,m4a,3gp,3g2,mj2, from 'C:\Users\vladi\code\text_to_voice\learn_vids\Revelation 2_default.mp4':
  Metadata:
    major_brand     : isom
    minor_version   : 1
    compatible_brands: isom
    creation_time   : 2023-12-13T19:54:49.000000Z
    encoder         : GPAC-2.0-rev0-g418db4149-HEAD
  Duration: 00:17:28.30, start: 0.000000, bitrate: 649 kb/s
  Stream #0:0[0x1](unk): Video: h264 (Main) (avc1 / 0x31637661), yuv420p(tv, bt709, progressive), 1280x720 [SAR 1:1 DAR 16:9], 518 kb/s, 30 fps, 120 tbr, 90k tbn (default)
      Metadata:
        handler_name    : ISO Video Handler
        vendor_id       : [0][0][0][0]
  Stream #0:1[0x2](unk): Audio: aac (LC) (mp4a / 0x6134706D), 44100 Hz, stereo, fltp, 124 kb/s (default)
      Metadata:
        handler_name    : ISO Audio Handler
        vendor_id       : [0][0][0][0]
  Stream #0:2[0x3](eng): Subtitle: mov_text (tx3g / 0x67337874), 1280x720, 0 kb/s (default)
      Metadata:
        creation_time   : 2023-12-13T19:54:50.000000Z
        handler_name    : panopto_EN-US
Stream mapping:
  Stream #0:1 -> #0:0 (aac (native) -> mp3 (libmp3lame))
Press [q] to stop, [?] for help
Output #0, mp3, to 'C:\Users\vladi\code\text_to_voice\learn_vids\mp3\Revelation 2_default.mp3':
  Metadata:
    major_brand     : isom
    minor_version   : 1
    compatible_brands: isom
    TSSE            : Lavf61.7.100
  Stream #0:0(unk): Audio: mp3, 44100 Hz, stereo, fltp (default)
      Metadata:
        handler_name    : ISO Audio Handler
        vendor_id       : [0][0][0][0]
        encoder         : Lavc61.19.100 libmp3lame
size=     768KiB time=00:00:55.61 bitrate= 113.1kbits/s speed= 107x    size=    1792KiB time=00:01:57.42 bitrate= 125.0kbits/s speed= 113x    size=    2560KiB time=00:02:59.77 bitrate= 116.7kbits/s speed= 116x    size=    3584KiB time=00:04:01.65 bitrate= 121.5kbits/s speed= 117x    size=    4608KiB time=00:05:04.79 bitrate= 123.8kbits/s speed= 118x    size=    5632KiB time=00:06:07.90 bitrate= 125.4kbits/s speed= 119x    size=    6656KiB time=00:07:12.98 bitrate= 125.9kbits/s speed= 120x    size=    7680KiB time=00:08:15.90 bitrate= 126.9kbits/s speed= 120x    size=    8448KiB time=00:09:19.02 bitrate= 123.8kbits/s speed= 120x    size=    9472KiB time=00:10:25.26 bitrate= 124.1kbits/s speed= 121x    size=   10496KiB time=00:11:30.26 bitrate= 124.6kbits/s speed= 121x    size=   11520KiB time=00:12:33.55 bitrate= 125.2kbits/s speed= 121x    size=   12544KiB time=00:13:37.97 bitrate= 125.6kbits/s speed= 121x    size=   13568KiB time=00:14:43.27 bitrate= 125.8kbits/s speed= 122x    size=   14592KiB time=00:15:46.02 bitrate= 126.4kbits/s speed= 122x    size=   15616KiB time=00:16:48.53 bitrate= 126.8kbits/s speed= 122x    [out#0/mp3 @ 000001ae7ba9ae80] video:0KiB audio:16458KiB subtitle:0KiB other streams:0KiB global headers:0KiB muxing overhead: 0.002023%
size=   16458KiB time=00:17:28.24 bitrate= 128.6kbits/s speed= 122x    
ffmpeg version 7.1-essentials_build-www.gyan.dev Copyright (c) 2000-2024 the FFmpeg developers
  built with gcc 14.2.0 (Rev1, Built by MSYS2 project)
  configuration: --enable-gpl --enable-version3 --enable-static --disable-w32threads --disable-autodetect --enable-fontconfig --enable-iconv --enable-gnutls --enable-libxml2 --enable-gmp --enable-bzlib --enable-lzma --enable-zlib --enable-libsrt --enable-libssh --enable-libzmq --enable-avisynth --enable-sdl2 --enable-libwebp --enable-libx264 --enable-libx265 --enable-libxvid --enable-libaom --enable-libopenjpeg --enable-libvpx --enable-mediafoundation --enable-libass --enable-libfreetype --enable-libfribidi --enable-libharfbuzz --enable-libvidstab --enable-libvmaf --enable-libzimg --enable-amf --enable-cuda-llvm --enable-cuvid --enable-dxva2 --enable-d3d11va --enable-d3d12va --enable-ffnvcodec --enable-libvpl --enable-nvdec --enable-nvenc --enable-vaapi --enable-libgme --enable-libopenmpt --enable-libopencore-amrwb --enable-libmp3lame --enable-libtheora --enable-libvo-amrwbenc --enable-libgsm --enable-libopencore-amrnb --enable-libopus --enable-libspeex --enable-libvorbis --enable-librubberband
  libavutil      59. 39.100 / 59. 39.100
  libavcodec     61. 19.100 / 61. 19.100
  libavformat    61.  7.100 / 61.  7.100
  libavdevice    61.  3.100 / 61.  3.100
  libavfilter    10.  4.100 / 10.  4.100
  libswscale      8.  3.100 /  8.  3.100
  libswresample   5.  3.100 /  5.  3.100
  libpostproc    58.  3.100 / 58.  3.100
Input #0, mov,mp4,m4a,3gp,3g2,mj2, from 'C:\Users\vladi\code\text_to_voice\learn_vids\Revelation 3_default.mp4':
  Metadata:
    major_brand     : isom
    minor_version   : 1
    compatible_brands: isom
    creation_time   : 2023-12-13T19:55:11.000000Z
    encoder         : GPAC-2.0-rev0-g418db4149-HEAD
  Duration: 00:13:05.47, start: 0.000000, bitrate: 845 kb/s
  Stream #0:0[0x1](unk): Video: h264 (Main) (avc1 / 0x31637661), yuv420p(tv, bt709, progressive), 1280x720 [SAR 1:1 DAR 16:9], 714 kb/s, 30.01 fps, 30 tbr, 90k tbn (default)
      Metadata:
        handler_name    : ISO Video Handler
        vendor_id       : [0][0][0][0]
  Stream #0:1[0x2](unk): Audio: aac (LC) (mp4a / 0x6134706D), 44100 Hz, stereo, fltp, 124 kb/s (default)
      Metadata:
        handler_name    : ISO Audio Handler
        vendor_id       : [0][0][0][0]
  Stream #0:2[0x3](eng): Subtitle: mov_text (tx3g / 0x67337874), 1280x720, 0 kb/s (default)
      Metadata:
        creation_time   : 2023-12-13T19:55:12.000000Z
        handler_name    : panopto_EN-US
Stream mapping:
  Stream #0:1 -> #0:0 (aac (native) -> mp3 (libmp3lame))
Press [q] to stop, [?] for help
Output #0, mp3, to 'C:\Users\vladi\code\text_to_voice\learn_vids\mp3\Revelation 3_default.mp3':
  Metadata:
    major_brand     : isom
    minor_version   : 1
    compatible_brands: isom
    TSSE            : Lavf61.7.100
  Stream #0:0(unk): Audio: mp3, 44100 Hz, stereo, fltp (default)
      Metadata:
        handler_name    : ISO Audio Handler
        vendor_id       : [0][0][0][0]
        encoder         : Lavc61.19.100 libmp3lame
size=     768KiB time=00:01:00.37 bitrate= 104.2kbits/s speed= 116x    size=    1792KiB time=00:01:57.26 bitrate= 125.2kbits/s speed= 113x    size=    2560KiB time=00:02:57.00 bitrate= 118.5kbits/s speed= 115x    size=    3584KiB time=00:03:59.17 bitrate= 122.8kbits/s speed= 116x    size=    4608KiB time=00:05:01.01 bitrate= 125.4kbits/s speed= 117x    size=    5632KiB time=00:06:03.23 bitrate= 127.0kbits/s speed= 117x    size=    6656KiB time=00:07:06.18 bitrate= 127.9kbits/s speed= 118x    size=    7424KiB time=00:08:06.32 bitrate= 125.1kbits/s speed= 118x    size=    8448KiB time=00:09:00.08 bitrate= 128.1kbits/s speed= 117x    size=    9216KiB time=00:09:57.65 bitrate= 126.3kbits/s speed= 116x    size=   10240KiB time=00:11:01.29 bitrate= 126.9kbits/s speed= 117x    size=   11264KiB time=00:12:02.02 bitrate= 127.8kbits/s speed= 117x    size=   12288KiB time=00:13:04.35 bitrate= 128.3kbits/s speed= 117x    [out#0/mp3 @ 000001eb1d75ac40] video:0KiB audio:12374KiB subtitle:0KiB other streams:0KiB global headers:0KiB muxing overhead: 0.002691%
size=   12375KiB time=00:13:05.36 bitrate= 129.1kbits/s speed= 117x    
ffmpeg version 7.1-essentials_build-www.gyan.dev Copyright (c) 2000-2024 the FFmpeg developers
  built with gcc 14.2.0 (Rev1, Built by MSYS2 project)
  configuration: --enable-gpl --enable-version3 --enable-static --disable-w32threads --disable-autodetect --enable-fontconfig --enable-iconv --enable-gnutls --enable-libxml2 --enable-gmp --enable-bzlib --enable-lzma --enable-zlib --enable-libsrt --enable-libssh --enable-libzmq --enable-avisynth --enable-sdl2 --enable-libwebp --enable-libx264 --enable-libx265 --enable-libxvid --enable-libaom --enable-libopenjpeg --enable-libvpx --enable-mediafoundation --enable-libass --enable-libfreetype --enable-libfribidi --enable-libharfbuzz --enable-libvidstab --enable-libvmaf --enable-libzimg --enable-amf --enable-cuda-llvm --enable-cuvid --enable-dxva2 --enable-d3d11va --enable-d3d12va --enable-ffnvcodec --enable-libvpl --enable-nvdec --enable-nvenc --enable-vaapi --enable-libgme --enable-libopenmpt --enable-libopencore-amrwb --enable-libmp3lame --enable-libtheora --enable-libvo-amrwbenc --enable-libgsm --enable-libopencore-amrnb --enable-libopus --enable-libspeex --enable-libvorbis --enable-librubberband
  libavutil      59. 39.100 / 59. 39.100
  libavcodec     61. 19.100 / 61. 19.100
  libavformat    61.  7.100 / 61.  7.100
  libavdevice    61.  3.100 / 61.  3.100
  libavfilter    10.  4.100 / 10.  4.100
  libswscale      8.  3.100 /  8.  3.100
  libswresample   5.  3.100 /  5.  3.100
  libpostproc    58.  3.100 / 58.  3.100
Input #0, mov,mp4,m4a,3gp,3g2,mj2, from 'C:\Users\vladi\code\text_to_voice\learn_vids\Revelation 4_default.mp4':
  Metadata:
    major_brand     : isom
    minor_version   : 1
    compatible_brands: isom
    creation_time   : 2023-12-13T19:55:39.000000Z
    encoder         : GPAC-2.0-rev0-g418db4149-HEAD
  Duration: 00:14:29.77, start: 0.000000, bitrate: 710 kb/s
  Stream #0:0[0x1](unk): Video: h264 (Main) (avc1 / 0x31637661), yuv420p(tv, bt709, progressive), 1280x720 [SAR 1:1 DAR 16:9], 578 kb/s, 30.01 fps, 30 tbr, 90k tbn (default)
      Metadata:
        handler_name    : ISO Video Handler
        vendor_id       : [0][0][0][0]
  Stream #0:1[0x2](unk): Audio: aac (LC) (mp4a / 0x6134706D), 44100 Hz, stereo, fltp, 124 kb/s (default)
      Metadata:
        handler_name    : ISO Audio Handler
        vendor_id       : [0][0][0][0]
  Stream #0:2[0x3](eng): Subtitle: mov_text (tx3g / 0x67337874), 1280x720, 0 kb/s (default)
      Metadata:
        creation_time   : 2023-12-13T19:55:40.000000Z
        handler_name    : panopto_EN-US
Stream mapping:
  Stream #0:1 -> #0:0 (aac (native) -> mp3 (libmp3lame))
Press [q] to stop, [?] for help
Output #0, mp3, to 'C:\Users\vladi\code\text_to_voice\learn_vids\mp3\Revelation 4_default.mp3':
  Metadata:
    major_brand     : isom
    minor_version   : 1
    compatible_brands: isom
    TSSE            : Lavf61.7.100
  Stream #0:0(unk): Audio: mp3, 44100 Hz, stereo, fltp (default)
      Metadata:
        handler_name    : ISO Audio Handler
        vendor_id       : [0][0][0][0]
        encoder         : Lavc61.19.100 libmp3lame
size=     768KiB time=00:01:01.23 bitrate= 102.7kbits/s speed= 117x    size=    1792KiB time=00:02:00.60 bitrate= 121.7kbits/s speed= 116x    size=    2816KiB time=00:03:02.23 bitrate= 126.6kbits/s speed= 116x    size=    3584KiB time=00:03:52.62 bitrate= 126.2kbits/s speed= 112x    size=    4608KiB time=00:04:56.54 bitrate= 127.3kbits/s speed= 114x    size=    5632KiB time=00:06:01.84 bitrate= 127.5kbits/s speed= 116x    size=    6656KiB time=00:07:10.70 bitrate= 126.6kbits/s speed= 119x    size=    7680KiB time=00:08:20.92 bitrate= 125.6kbits/s speed= 121x    size=    8960KiB time=00:09:30.22 bitrate= 128.7kbits/s speed= 122x    size=    9984KiB time=00:10:39.03 bitrate= 128.0kbits/s speed= 123x    size=   11008KiB time=00:11:47.52 bitrate= 127.5kbits/s speed= 124x    size=   12032KiB time=00:12:51.76 bitrate= 127.7kbits/s speed= 124x    size=   13056KiB time=00:13:56.96 bitrate= 127.8kbits/s speed= 124x    [out#0/mp3 @ 0000028e2a3df100] video:0KiB audio:13751KiB subtitle:0KiB other streams:0KiB global headers:0KiB muxing overhead: 0.002422%
size=   13751KiB time=00:14:29.65 bitrate= 129.5kbits/s speed= 124x    
ffmpeg version 7.1-essentials_build-www.gyan.dev Copyright (c) 2000-2024 the FFmpeg developers
  built with gcc 14.2.0 (Rev1, Built by MSYS2 project)
  configuration: --enable-gpl --enable-version3 --enable-static --disable-w32threads --disable-autodetect --enable-fontconfig --enable-iconv --enable-gnutls --enable-libxml2 --enable-gmp --enable-bzlib --enable-lzma --enable-zlib --enable-libsrt --enable-libssh --enable-libzmq --enable-avisynth --enable-sdl2 --enable-libwebp --enable-libx264 --enable-libx265 --enable-libxvid --enable-libaom --enable-libopenjpeg --enable-libvpx --enable-mediafoundation --enable-libass --enable-libfreetype --enable-libfribidi --enable-libharfbuzz --enable-libvidstab --enable-libvmaf --enable-libzimg --enable-amf --enable-cuda-llvm --enable-cuvid --enable-dxva2 --enable-d3d11va --enable-d3d12va --enable-ffnvcodec --enable-libvpl --enable-nvdec --enable-nvenc --enable-vaapi --enable-libgme --enable-libopenmpt --enable-libopencore-amrwb --enable-libmp3lame --enable-libtheora --enable-libvo-amrwbenc --enable-libgsm --enable-libopencore-amrnb --enable-libopus --enable-libspeex --enable-libvorbis --enable-librubberband
  libavutil      59. 39.100 / 59. 39.100
  libavcodec     61. 19.100 / 61. 19.100
  libavformat    61.  7.100 / 61.  7.100
  libavdevice    61.  3.100 / 61.  3.100
  libavfilter    10.  4.100 / 10.  4.100
  libswscale      8.  3.100 /  8.  3.100
  libswresample   5.  3.100 /  5.  3.100
  libpostproc    58.  3.100 / 58.  3.100
Input #0, mov,mp4,m4a,3gp,3g2,mj2, from 'C:\Users\vladi\code\text_to_voice\learn_vids\Revelation_default.mp4':
  Metadata:
    major_brand     : isom
    minor_version   : 1
    compatible_brands: isom
    creation_time   : 2023-12-13T19:54:20.000000Z
    encoder         : GPAC-2.0-rev0-g418db4149-HEAD
  Duration: 00:13:57.03, start: 0.000000, bitrate: 837 kb/s
  Stream #0:0[0x1](unk): Video: h264 (Main) (avc1 / 0x31637661), yuv420p(tv, bt709, progressive), 1280x720 [SAR 1:1 DAR 16:9], 705 kb/s, 30 fps, 30 tbr, 90k tbn (default)
      Metadata:
        handler_name    : ISO Video Handler
        vendor_id       : [0][0][0][0]
  Stream #0:1[0x2](unk): Audio: aac (LC) (mp4a / 0x6134706D), 44100 Hz, stereo, fltp, 124 kb/s (default)
      Metadata:
        handler_name    : ISO Audio Handler
        vendor_id       : [0][0][0][0]
  Stream #0:2[0x3](eng): Subtitle: mov_text (tx3g / 0x67337874), 1280x720, 0 kb/s (default)
      Metadata:
        creation_time   : 2023-12-13T19:54:21.000000Z
        handler_name    : panopto_EN-US
Stream mapping:
  Stream #0:1 -> #0:0 (aac (native) -> mp3 (libmp3lame))
Press [q] to stop, [?] for help
Output #0, mp3, to 'C:\Users\vladi\code\text_to_voice\learn_vids\mp3\Revelation_default.mp3':
  Metadata:
    major_brand     : isom
    minor_version   : 1
    compatible_brands: isom
    TSSE            : Lavf61.7.100
  Stream #0:0(unk): Audio: mp3, 44100 Hz, stereo, fltp (default)
      Metadata:
        handler_name    : ISO Audio Handler
        vendor_id       : [0][0][0][0]
        encoder         : Lavc61.19.100 libmp3lame
size=     768KiB time=00:01:02.82 bitrate= 100.1kbits/s speed= 122x    size=    1792KiB time=00:02:08.57 bitrate= 114.2kbits/s speed= 125x    size=    3072KiB time=00:03:15.16 bitrate= 128.9kbits/s speed= 126x    size=    4096KiB time=00:04:20.75 bitrate= 128.7kbits/s speed= 126x    size=    5120KiB time=00:05:27.94 bitrate= 127.9kbits/s speed= 127x    size=    6144KiB time=00:06:33.17 bitrate= 128.0kbits/s speed= 126x    size=    7168KiB time=00:07:38.21 bitrate= 128.2kbits/s speed= 126x    size=    8192KiB time=00:08:44.27 bitrate= 128.0kbits/s speed= 127x    size=    9216KiB time=00:09:49.89 bitrate= 128.0kbits/s speed= 127x    size=   10240KiB time=00:10:56.37 bitrate= 127.8kbits/s speed= 127x    size=   11264KiB time=00:12:00.22 bitrate= 128.1kbits/s speed= 127x    size=   12288KiB time=00:13:05.68 bitrate= 128.1kbits/s speed= 127x    [out#0/mp3 @ 00000212a7adec40] video:0KiB audio:13242KiB subtitle:0KiB other streams:0KiB global headers:0KiB muxing overhead: 0.002515%
size=   13243KiB time=00:13:56.94 bitrate= 129.6kbits/s speed= 127x    
